<svg width="39" height="52" viewBox="0 0 39 52" fill="none" xmlns="http://www.w3.org/2000/svg">
<path d="M19.6375 1C29.9088 1 38.275 9.84076 38.275 21.241C38.275 26.2989 35.6285 32.4551 30.5865 39.7899C29.0066 42.0882 27.2578 44.3963 25.3993 46.6531C24.3917 47.8766 23.4152 49.0074 22.7728 49.7061C21.902 50.6534 20.8647 51.1354 19.6375 51.1354C18.4103 51.1354 17.373 50.6534 16.5022 49.7061C15.8598 49.0074 14.8833 47.8766 13.8757 46.6531C12.0172 44.3963 10.2684 42.0882 8.68849 39.7899C3.64646 32.4551 1 26.2989 1 21.241C1 9.84076 9.3662 1 19.6375 1Z" fill="white"/>
<mask id="path-2-outside-1_19626_128151" maskUnits="userSpaceOnUse" x="2.66406" y="2.86523" width="34" height="47" fill="black">
<rect fill="white" x="2.66406" y="2.86523" width="34" height="47"/>
<path fill-rule="evenodd" clip-rule="evenodd" d="M3.66406 21.2414C3.66406 10.4295 11.8291 3.86523 19.6391 3.86523C27.4491 3.86523 35.6141 10.4295 35.6141 21.2414C35.6141 31.474 21.4141 47.1125 20.8816 47.6917C20.5266 48.0778 20.1716 48.2709 19.6391 48.2709C19.1066 48.2709 18.7516 48.0778 18.3966 47.6917C17.8641 47.1125 3.66406 31.474 3.66406 21.2414ZM14.3125 21.055C14.3125 24.3018 16.62 26.7847 19.6375 26.7847C22.655 26.7847 24.9625 24.3018 24.9625 21.055C24.9625 17.8081 22.655 15.3252 19.6375 15.3252C16.62 15.3252 14.3125 17.8081 14.3125 21.055Z"/>
</mask>
<path fill-rule="evenodd" clip-rule="evenodd" d="M3.66406 21.2414C3.66406 10.4295 11.8291 3.86523 19.6391 3.86523C27.4491 3.86523 35.6141 10.4295 35.6141 21.2414C35.6141 31.474 21.4141 47.1125 20.8816 47.6917C20.5266 48.0778 20.1716 48.2709 19.6391 48.2709C19.1066 48.2709 18.7516 48.0778 18.3966 47.6917C17.8641 47.1125 3.66406 31.474 3.66406 21.2414ZM14.3125 21.055C14.3125 24.3018 16.62 26.7847 19.6375 26.7847C22.655 26.7847 24.9625 24.3018 24.9625 21.055C24.9625 17.8081 22.655 15.3252 19.6375 15.3252C16.62 15.3252 14.3125 17.8081 14.3125 21.055Z" fill="#FF5800"/>
<path d="M20.8816 47.6917L21.6177 48.3685L21.6177 48.3685L20.8816 47.6917ZM18.3966 47.6917L17.6604 48.3685L17.6604 48.3685L18.3966 47.6917ZM19.6391 2.86523C11.2846 2.86523 2.66406 9.86945 2.66406 21.2414H4.66406C4.66406 10.9896 12.3735 4.86523 19.6391 4.86523V2.86523ZM36.6141 21.2414C36.6141 9.86945 27.9935 2.86523 19.6391 2.86523V4.86523C26.9046 4.86523 34.6141 10.9896 34.6141 21.2414H36.6141ZM21.6177 48.3685C21.8996 48.0619 25.6175 43.9687 29.2716 38.653C31.0986 35.9953 32.9238 33.0115 34.2956 30.0273C35.6606 27.0579 36.6141 24.0086 36.6141 21.2414H34.6141C34.6141 23.5904 33.7925 26.3332 32.4784 29.192C31.171 32.0361 29.413 34.9167 27.6234 37.5201C24.0443 42.7267 20.396 46.7423 20.1454 47.0149L21.6177 48.3685ZM19.6391 49.2709C20.0334 49.2709 20.4077 49.1978 20.7621 49.0264C21.1095 48.8585 21.3851 48.6215 21.6177 48.3685L20.1454 47.0149C20.023 47.148 19.9436 47.2006 19.8916 47.2258C19.8467 47.2475 19.7772 47.2709 19.6391 47.2709V49.2709ZM17.6604 48.3685C17.893 48.6215 18.1686 48.8585 18.516 49.0264C18.8704 49.1978 19.2447 49.2709 19.6391 49.2709V47.2709C19.5009 47.2709 19.4314 47.2475 19.3865 47.2258C19.3345 47.2006 19.2551 47.148 19.1327 47.0149L17.6604 48.3685ZM2.66406 21.2414C2.66406 24.0086 3.61754 27.0579 4.98253 30.0273C6.35429 33.0115 8.17957 35.9953 10.0065 38.653C13.6606 43.9687 17.3785 48.0619 17.6604 48.3685L19.1327 47.0149C18.8821 46.7423 15.2338 42.7267 11.6547 37.5201C9.86512 34.9167 8.10711 32.0361 6.79973 29.192C5.48559 26.3332 4.66406 23.5904 4.66406 21.2414H2.66406ZM19.6375 25.7847C17.24 25.7847 15.3125 23.8198 15.3125 21.055H13.3125C13.3125 24.7838 16 27.7847 19.6375 27.7847V25.7847ZM23.9625 21.055C23.9625 23.8198 22.035 25.7847 19.6375 25.7847V27.7847C23.275 27.7847 25.9625 24.7838 25.9625 21.055H23.9625ZM19.6375 16.3252C22.035 16.3252 23.9625 18.2901 23.9625 21.055H25.9625C25.9625 17.3261 23.275 14.3252 19.6375 14.3252V16.3252ZM15.3125 21.055C15.3125 18.2901 17.24 16.3252 19.6375 16.3252V14.3252C16 14.3252 13.3125 17.3261 13.3125 21.055H15.3125Z" fill="white" mask="url(#path-2-outside-1_19626_128151)"/>
</svg>
