<svg width="15" height="15" viewBox="0 0 15 15" fill="none" xmlns="http://www.w3.org/2000/svg">
<path d="M1.33691 12.0352H9.36001" stroke="black" stroke-width="0.783542" stroke-linecap="round" stroke-linejoin="round"/>
<path d="M0.943122 7.82125L3.04335 9.79022C3.32318 10.0526 3.68015 10.2177 4.06126 10.261C4.44237 10.3044 4.82729 10.2236 5.15889 10.0309L13.5947 5.12632L12.5562 3.85703C12.2868 3.52775 11.9085 3.30566 11.4896 3.23088C11.0708 3.15611 10.639 3.23357 10.2723 3.44929L7.80024 4.90345L4.45729 3.78914L3.53803 4.1831C3.46925 4.21258 3.40901 4.25889 3.36284 4.31777C3.31667 4.37666 3.28607 4.44622 3.27386 4.52004C3.26165 4.59386 3.26821 4.66956 3.29295 4.74018C3.3177 4.81079 3.35982 4.87404 3.41543 4.9241L5.12588 6.4635L3.56583 7.35496L2.00578 6.68636L1.07239 7.08639C1.00432 7.11556 0.944596 7.16124 0.898607 7.21928C0.852618 7.27733 0.821817 7.34592 0.808987 7.41886C0.796156 7.49179 0.801701 7.56678 0.82512 7.63703C0.84854 7.70729 0.889095 7.7706 0.943122 7.82125V7.82125Z" stroke="black" stroke-width="0.783542" stroke-linecap="round" stroke-linejoin="round"/>
</svg>
