<svg width="24" height="24" viewBox="0 0 24 24" fill="none" xmlns="http://www.w3.org/2000/svg">
<path d="M22.5003 11.2502H16.5V7.5H20.4925C20.6424 7.5 20.7888 7.54492 20.9129 7.62896C21.0371 7.713 21.1332 7.8323 21.1888 7.97148L22.5003 11.2502Z" stroke="#404040" stroke-width="1.50008" stroke-linecap="round" stroke-linejoin="round"/>
<path d="M1.5 13.501H16.5008" stroke="#404040" stroke-width="1.50008" stroke-linecap="round" stroke-linejoin="round"/>
<path d="M17.6251 20.2512C18.8678 20.2512 19.8753 19.2438 19.8753 18.0011C19.8753 16.7584 18.8678 15.751 17.6251 15.751C16.3824 15.751 15.375 16.7584 15.375 18.0011C15.375 19.2438 16.3824 20.2512 17.6251 20.2512Z" stroke="#404040" stroke-width="1.50008" stroke-miterlimit="10"/>
<path d="M6.37513 20.2512C7.61784 20.2512 8.62526 19.2438 8.62526 18.0011C8.62526 16.7584 7.61784 15.751 6.37513 15.751C5.13242 15.751 4.125 16.7584 4.125 18.0011C4.125 19.2438 5.13242 20.2512 6.37513 20.2512Z" stroke="#404040" stroke-width="1.50008" stroke-miterlimit="10"/>
<path d="M15.3754 18.001H8.625" stroke="#404040" stroke-width="1.50008" stroke-linecap="round" stroke-linejoin="round"/>
<path d="M4.12515 18.0007H2.25004C2.05112 18.0007 1.86034 17.9217 1.71968 17.781C1.57902 17.6403 1.5 17.4496 1.5 17.2506V6.75004C1.5 6.55112 1.57902 6.36034 1.71968 6.21968C1.86034 6.07902 2.05112 6 2.25004 6H16.5008V16.052" stroke="#404040" stroke-width="1.50008" stroke-linecap="round" stroke-linejoin="round"/>
<path d="M16.5 16.0527V11.251H22.5003V17.2513C22.5003 17.4502 22.4213 17.641 22.2807 17.7817C22.14 17.9223 21.9492 18.0014 21.7503 18.0014H19.8752" stroke="#404040" stroke-width="1.50008" stroke-linecap="round" stroke-linejoin="round"/>
</svg>
