<svg width="15" height="15" viewBox="0 0 15 15" fill="none" xmlns="http://www.w3.org/2000/svg">
<path d="M12.035 12.0352H2.229" stroke="black" stroke-width="0.783542" stroke-linecap="round" stroke-linejoin="round"/>
<path d="M8.02295 4.4575V9.80623C8.02295 10.0524 8.22251 10.252 8.46868 10.252H10.6973C10.9435 10.252 11.143 10.0524 11.143 9.80623V4.4575C11.143 4.21133 10.9435 4.01177 10.6973 4.01177H8.46868C8.22251 4.01177 8.02295 4.21133 8.02295 4.4575Z" stroke="black" stroke-width="0.783542" stroke-linecap="round" stroke-linejoin="round"/>
<path d="M5.79448 1.7832H3.56584C3.31968 1.7832 3.12012 1.98276 3.12012 2.22893V9.8063C3.12012 10.0525 3.31968 10.252 3.56584 10.252H5.79448C6.04065 10.252 6.24021 10.0525 6.24021 9.8063V2.22893C6.24021 1.98276 6.04065 1.7832 5.79448 1.7832Z" stroke="black" stroke-width="0.783542" stroke-linecap="round" stroke-linejoin="round"/>
</svg>
