<svg width="15" height="16" viewBox="0 0 15 16" fill="none" xmlns="http://www.w3.org/2000/svg">
<path d="M2.75072 6.0485C2.41636 5.71414 2.22852 5.26065 2.22852 4.78779C2.22852 4.31494 2.41636 3.86145 2.75072 3.52709C3.08508 3.19272 3.53857 3.00488 4.01143 3.00488C4.48428 3.00488 4.93777 3.19272 5.27213 3.52709L11.5123 9.76727C11.8467 10.1016 12.0345 10.5551 12.0345 11.028C12.0345 11.5008 11.8467 11.9543 11.5123 12.2887C11.178 12.623 10.7245 12.8109 10.2516 12.8109C9.77875 12.8109 9.32526 12.623 8.9909 12.2887L2.75072 6.0485Z" stroke="black" stroke-width="0.783542" stroke-linecap="round" stroke-linejoin="round"/>
<path d="M8.9909 3.52709C9.32526 3.19272 9.77875 3.00488 10.2516 3.00488C10.4857 3.00488 10.7176 3.051 10.9339 3.1406C11.1502 3.2302 11.3468 3.36153 11.5123 3.52709C11.6779 3.69264 11.8092 3.88919 11.8988 4.1055C11.9884 4.32182 12.0345 4.55366 12.0345 4.78779C12.0345 5.02193 11.9884 5.25377 11.8988 5.47008C11.8092 5.6864 11.6779 5.88294 11.5123 6.0485L5.27213 12.2887C5.10657 12.4542 4.91003 12.5856 4.69372 12.6752C4.4774 12.7648 4.24556 12.8109 4.01143 12.8109C3.77729 12.8109 3.54545 12.7648 3.32914 12.6752C3.11282 12.5856 2.91628 12.4542 2.75072 12.2887C2.41636 11.9543 2.22852 11.5008 2.22852 11.028C2.22852 10.5551 2.41636 10.1016 2.75072 9.76727L8.9909 3.52709Z" stroke="black" stroke-width="0.783542" stroke-linecap="round" stroke-linejoin="round"/>
<path d="M7.13148 8.57644C7.50073 8.57644 7.80007 8.2771 7.80007 7.90785C7.80007 7.5386 7.50073 7.23926 7.13148 7.23926C6.76223 7.23926 6.46289 7.5386 6.46289 7.90785C6.46289 8.2771 6.76223 8.57644 7.13148 8.57644Z" fill="black"/>
</svg>
