<svg width="20" height="20" viewBox="0 0 20 20" fill="none" xmlns="http://www.w3.org/2000/svg">
<path d="M12.2411 16.8749H3.75C3.58424 16.8749 3.42527 16.8091 3.30806 16.6919C3.19085 16.5747 3.125 16.4157 3.125 16.25V3.75C3.125 3.58424 3.19085 3.42527 3.30806 3.30806C3.42527 3.19085 3.58424 3.125 3.75 3.125H16.25C16.4157 3.125 16.5747 3.19085 16.6919 3.30806C16.8091 3.42527 16.8749 3.58424 16.8749 3.75V12.2411C16.8749 12.3232 16.8588 12.4044 16.8274 12.4803C16.796 12.5561 16.7499 12.625 16.6919 12.683L12.683 16.6919C12.625 16.7499 12.5561 16.796 12.4803 16.8274C12.4044 16.8588 12.3232 16.8749 12.2411 16.8749V16.8749Z" stroke="#404040" stroke-width="1.25" stroke-linecap="round" stroke-linejoin="round"/>
<path d="M16.8188 12.499H12.5V16.8178" stroke="#404040" stroke-width="1.25" stroke-linecap="round" stroke-linejoin="round"/>
</svg>
