<svg width="30" height="30" viewBox="0 0 30 30" fill="none" xmlns="http://www.w3.org/2000/svg">
<path d="M25.3125 8.4375H4.6875C4.16973 8.4375 3.75 8.85723 3.75 9.375V24.375C3.75 24.8928 4.16973 25.3125 4.6875 25.3125H25.3125C25.8303 25.3125 26.25 24.8928 26.25 24.375V9.375C26.25 8.85723 25.8303 8.4375 25.3125 8.4375Z" stroke="#6EAB15" stroke-width="1.90323" stroke-linecap="round" stroke-linejoin="round"/>
<path d="M19.6875 8.4375V6.5625C19.6875 6.06522 19.49 5.58831 19.1383 5.23667C18.7867 4.88504 18.3098 4.6875 17.8125 4.6875H12.1875C11.6902 4.6875 11.2133 4.88504 10.8617 5.23667C10.51 5.58831 10.3125 6.06522 10.3125 6.5625V8.4375" stroke="#6EAB15" stroke-width="1.90323" stroke-linecap="round" stroke-linejoin="round"/>
<path d="M26.2502 14.8018C22.831 16.7799 18.9494 17.8186 14.9992 17.8124C11.0497 17.8186 7.16878 16.7803 3.75 14.8027" stroke="#6EAB15" stroke-width="1.90323" stroke-linecap="round" stroke-linejoin="round"/>
<path d="M13.5938 14.0625H16.4063" stroke="#6EAB15" stroke-width="1.90323" stroke-linecap="round" stroke-linejoin="round"/>
</svg>
