<svg width="50" height="50" viewBox="0 0 50 50" fill="none" xmlns="http://www.w3.org/2000/svg">
<path d="M42.1894 14.0625H7.81445C6.95151 14.0625 6.25195 14.7621 6.25195 15.625V40.625C6.25195 41.4879 6.95151 42.1875 7.81445 42.1875H42.1894C43.0524 42.1875 43.7519 41.4879 43.7519 40.625V15.625C43.7519 14.7621 43.0524 14.0625 42.1894 14.0625Z" stroke="#004FA3" stroke-width="3.1375" stroke-linecap="round" stroke-linejoin="round"/>
<path d="M32.8125 14.0635V10.9385C32.8125 10.1097 32.4833 9.31482 31.8972 8.72877C31.3112 8.14272 30.5163 7.81348 29.6875 7.81348H20.3125C19.4837 7.81348 18.6888 8.14272 18.1028 8.72877C17.5167 9.31482 17.1875 10.1097 17.1875 10.9385V14.0635" stroke="#004FA3" stroke-width="3.1375" stroke-linecap="round" stroke-linejoin="round"/>
<path d="M43.7522 24.6699C38.0536 27.9669 31.5843 29.698 25.0007 29.6877C18.4181 29.698 11.9499 27.9675 6.25195 24.6716" stroke="#004FA3" stroke-width="3.1375" stroke-linecap="round" stroke-linejoin="round"/>
<path d="M22.6562 23.4375H27.3438" stroke="#004FA3" stroke-width="3.1375" stroke-linecap="round" stroke-linejoin="round"/>
</svg>
