<svg width="16" height="17" viewBox="0 0 16 17" fill="none" xmlns="http://www.w3.org/2000/svg">
<path d="M8.99957 14.9942V3.49414C8.99957 3.36154 8.94689 3.23436 8.85313 3.14059C8.75936 3.04682 8.63218 2.99414 8.49957 2.99414H2.49952C2.36691 2.99414 2.23973 3.04682 2.14596 3.14059C2.05219 3.23436 1.99951 3.36154 1.99951 3.49414V14.9942" stroke="black" stroke-width="1.00001" stroke-linecap="round" stroke-linejoin="round"/>
<path d="M13.9996 14.9942V7.49415C13.9996 7.36154 13.9469 7.23436 13.8531 7.14059C13.7593 7.04682 13.6322 6.99414 13.4996 6.99414H8.99951" stroke="black" stroke-width="1.00001" stroke-linecap="round" stroke-linejoin="round"/>
<path d="M3.99951 5.49414H5.99953" stroke="black" stroke-width="1.00001" stroke-linecap="round" stroke-linejoin="round"/>
<path d="M4.99951 10.4941H6.99953" stroke="black" stroke-width="1.00001" stroke-linecap="round" stroke-linejoin="round"/>
<path d="M3.99951 12.9941H5.99953" stroke="black" stroke-width="1.00001" stroke-linecap="round" stroke-linejoin="round"/>
<path d="M10.9995 11.9941H11.9995" stroke="black" stroke-width="1.00001" stroke-linecap="round" stroke-linejoin="round"/>
<path d="M10.9995 9.49414H11.9995" stroke="black" stroke-width="1.00001" stroke-linecap="round" stroke-linejoin="round"/>
</svg>
