<svg width="30" height="30" viewBox="0 0 30 30" fill="none" xmlns="http://www.w3.org/2000/svg">
<path d="M5.32368 20.7413C3.92595 18.3851 3.43645 15.5996 3.9471 12.908C4.45776 10.2164 5.93344 7.80378 8.09705 6.12319C10.2607 4.4426 12.9634 3.60965 15.6976 3.78076C18.4319 3.95186 21.0097 5.11524 22.9469 7.05245C24.8841 8.98966 26.0475 11.5674 26.2186 14.3017C26.3898 17.036 25.5568 19.7387 23.8762 21.9023C22.1957 24.0659 19.7831 25.5416 17.0914 26.0523C14.3998 26.563 11.6144 26.0735 9.25811 24.6757L9.25814 24.6756L5.3726 25.7858C5.21184 25.8317 5.04173 25.8338 4.87988 25.7919C4.71804 25.7499 4.57035 25.6655 4.45213 25.5473C4.33391 25.429 4.24945 25.2814 4.20751 25.1195C4.16558 24.9577 4.16768 24.7876 4.21362 24.6268L5.32377 20.7413L5.32368 20.7413Z" stroke="#6EAB15" stroke-width="1.90323" stroke-linecap="round" stroke-linejoin="round"/>
<path d="M9.375 16.4111C10.1517 16.4111 10.7813 15.7815 10.7813 15.0049C10.7813 14.2282 10.1517 13.5986 9.375 13.5986C8.59835 13.5986 7.96875 14.2282 7.96875 15.0049C7.96875 15.7815 8.59835 16.4111 9.375 16.4111Z" fill="#6EAB15"/>
<path d="M15 16.4111C15.7767 16.4111 16.4063 15.7815 16.4063 15.0049C16.4063 14.2282 15.7767 13.5986 15 13.5986C14.2233 13.5986 13.5938 14.2282 13.5938 15.0049C13.5938 15.7815 14.2233 16.4111 15 16.4111Z" fill="#6EAB15"/>
<path d="M20.625 16.4111C21.4017 16.4111 22.0313 15.7815 22.0313 15.0049C22.0313 14.2282 21.4017 13.5986 20.625 13.5986C19.8483 13.5986 19.2188 14.2282 19.2188 15.0049C19.2188 15.7815 19.8483 16.4111 20.625 16.4111Z" fill="#6EAB15"/>
</svg>
