<svg width="24" height="24" viewBox="0 0 24 24" fill="none" xmlns="http://www.w3.org/2000/svg">
<path d="M9.99994 14.5859L5.99994 10.5859L4.58594 11.9999L9.99994 17.4139L19.4139 7.99994L17.9999 6.58594L9.99994 14.5859Z" fill="#8BBE41"/>
<path fill-rule="evenodd" clip-rule="evenodd" d="M0 12C0 5.383 5.383 0 12 0C18.617 0 24 5.383 24 12C24 18.617 18.617 24 12 24C5.383 24 0 18.617 0 12ZM2 12C2 17.514 6.486 22 12 22C17.514 22 22 17.514 22 12C22 6.486 17.514 2 12 2C6.486 2 2 6.486 2 12Z" fill="#8BBE41"/>
</svg>
