<svg xmlns="http://www.w3.org/2000/svg" width="24" height="24" viewBox="0 0 24 24">
    <g fill="#69C6EE" fill-rule="nonzero">
        <path d="M23.293 6.121A2.394 2.394 0 0 0 24 4.414c0-.645-.251-1.251-.707-1.707a2.416 2.416 0 0 0-2.562-.546A3.501 3.501 0 0 0 17.5 0h-14C1.57 0 0 1.57 0 3.5V4a1 1 0 0 0 1 1h4v15.5C5 22.43 6.57 24 8.5 24h12c1.93 0 3.5-1.57 3.5-3.5V20a1 1 0 0 0-1-1h-2V8.414l2.293-2.293zm-1.415-2a.414.414 0 0 1 .001.586L19.39 7.196a.955.955 0 0 0-.162.162L16.586 10 16 9.414l4.706-4.706.002-.002.585-.585a.416.416 0 0 1 .585 0zM3.5 2c.146 0 .284.028.418.067l.087.027c.126.046.247.105.355.181.016.011.029.025.045.037.095.073.18.157.256.25.017.021.035.04.051.061.077.106.14.223.187.347l.009.03H2.085c.207-.582.763-1 1.415-1zm17 20h-8.825c.142-.294.245-.626.293-1h9.946c-.206.582-.762 1-1.414 1zM19 19h-8a1 1 0 0 0-1 1v.5c0 1.192-1.194 1.447-1.54 1.496A1.5 1.5 0 0 1 7 20.5v-17c0-.256-.031-.504-.084-.745-.017-.079-.049-.152-.071-.229a3.41 3.41 0 0 0-.16-.459c-.009-.021-.013-.046-.023-.067H17.5c.827 0 1.5.673 1.5 1.5v.086l-5.121 5.121a.999.999 0 0 0 0 1.414l2 2a.997.997 0 0 0 1.414 0L19 10.414V19z"/>
        <path d="M9.981 11.861c-.985.985-.998 3.436-.979 4.163.014.531.441.959.973.974.083.002.189.004.313.004.957 0 2.978-.109 3.851-.982a2.944 2.944 0 0 0 0-4.158c-1.111-1.112-3.048-1.112-4.158-.001zm2.746 2.742c-.187.165-.899.31-1.699.369.06-.798.204-1.51.369-1.698a.963.963 0 0 1 1.328.002.941.941 0 0 1 .002 1.327z"/>
    </g>
</svg>
