<svg width="24" height="24" viewBox="0 0 24 24" fill="none" xmlns="http://www.w3.org/2000/svg">
<path d="M13.8115 20.374V5.28027C13.8115 5.10622 13.7424 4.93931 13.6193 4.81623C13.4962 4.69316 13.3293 4.62402 13.1553 4.62402H5.28027C5.10623 4.62402 4.93931 4.69316 4.81623 4.81623C4.69316 4.93931 4.62402 5.10622 4.62402 5.28027V20.374" stroke="#404040" stroke-width="1.52" stroke-linecap="round" stroke-linejoin="round"/>
<path d="M20.374 20.374V10.5303C20.374 10.3562 20.3049 10.1893 20.1818 10.0662C20.0587 9.94316 19.8918 9.87402 19.7178 9.87402H13.8115" stroke="#404040" stroke-width="1.52" stroke-linecap="round" stroke-linejoin="round"/>
<path d="M7.24902 7.90527H9.87402" stroke="#404040" stroke-width="1.3125" stroke-linecap="round" stroke-linejoin="round"/>
<path d="M8.56152 14.4678H11.1865" stroke="#404040" stroke-width="1.3125" stroke-linecap="round" stroke-linejoin="round"/>
<path d="M7.24902 17.749H9.87402" stroke="#404040" stroke-width="1.3125" stroke-linecap="round" stroke-linejoin="round"/>
<path d="M16.4365 16.4365H17.749" stroke="#404040" stroke-width="1.3125" stroke-linecap="round" stroke-linejoin="round"/>
<path d="M16.4365 13.1553H17.749" stroke="#404040" stroke-width="1.3125" stroke-linecap="round" stroke-linejoin="round"/>
</svg>
