<svg width="15" height="15" viewBox="0 0 15 15" fill="none" xmlns="http://www.w3.org/2000/svg">
<path d="M7.13152 7.13193C9.83937 7.13193 12.0345 5.93458 12.0345 4.45757C12.0345 2.98056 9.83937 1.7832 7.13152 1.7832C4.42366 1.7832 2.22852 2.98056 2.22852 4.45757C2.22852 5.93458 4.42366 7.13193 7.13152 7.13193Z" stroke="black" stroke-width="0.783542" stroke-linecap="round" stroke-linejoin="round"/>
<path d="M2.22852 4.45703V7.1314C2.22852 8.60841 4.42366 9.80576 7.13152 9.80576C9.83937 9.80576 12.0345 8.60841 12.0345 7.1314V4.45703" stroke="black" stroke-width="0.783542" stroke-linecap="round" stroke-linejoin="round"/>
<path d="M2.22852 7.13184V9.8062C2.22852 11.2832 4.42366 12.4806 7.13152 12.4806C9.83937 12.4806 12.0345 11.2832 12.0345 9.8062V7.13184" stroke="black" stroke-width="0.783542" stroke-linecap="round" stroke-linejoin="round"/>
</svg>
