<svg width="24" height="24" viewBox="0 0 24 24" fill="none" xmlns="http://www.w3.org/2000/svg">
<path d="M18.001 20.251V3.75008C18.001 2.92161 17.3294 2.25 16.5009 2.25L7.50038 2.25C6.67191 2.25 6.0003 2.92161 6.0003 3.75008L6.0003 20.251C6.0003 21.0795 6.67191 21.7511 7.50038 21.7511H16.5009C17.3294 21.7511 18.001 21.0795 18.001 20.251Z" stroke="white" stroke-width="1.50008" stroke-linecap="round" stroke-linejoin="round"/>
<path d="M12.001 6.75013C12.6224 6.75013 13.1261 6.24642 13.1261 5.62506C13.1261 5.00371 12.6224 4.5 12.001 4.5C11.3797 4.5 10.876 5.00371 10.876 5.62506C10.876 6.24642 11.3797 6.75013 12.001 6.75013Z" fill="white"/>
</svg>
