<svg xmlns="http://www.w3.org/2000/svg" width="24" height="24" viewBox="0 0 24 24">
    <path fill="#69C6EE" fill-rule="nonzero" d="M21 8.586V4a1 1 0 0 0-1-1h-4.586L12.707.293a1 1 0 0 0-1.414 0L8.586 3H4a1 1 0 0 0-1 1v4.586L.293 11.293a1 1 0 0 0 0 1.414L3 15.414V20a1 1 0 0 0 1 1h4.586l2.707 2.707a1 1 0 0 0 1.414 0L15.414 21H20a1 1 0 0 0 1-1v-4.586l2.707-2.707a1 1 0 0 0 0-1.414L21 8.586zM8.5 7a1.5 1.5 0 1 1 0 3 1.5 1.5 0 0 1 0-3zm7 10a1.5 1.5 0 1 1 0-3 1.5 1.5 0 0 1 0 3zm-7.5.414L6.586 16 16 6.586 17.414 8 8 17.414z"/>
</svg>
