<svg width="16" height="16" viewBox="0 0 16 16" fill="none" xmlns="http://www.w3.org/2000/svg">
<path d="M11.5619 2.31725L8.93929 4.93989L9.29284 6.70767L11.0606 7.06123L13.6833 4.43859L13.6835 4.43848C14.0081 5.20475 14.0858 6.05317 13.9056 6.86564C13.7255 7.67811 13.2965 8.41419 12.6784 8.97144C12.0603 9.52868 11.2839 9.87936 10.4572 9.97466C9.63043 10.07 8.79456 9.90513 8.0659 9.50313L8.06598 9.50299L4.56057 13.5613C4.2792 13.8423 3.89776 14.0001 3.50007 14C3.10239 13.9999 2.72103 13.8419 2.43983 13.5607C2.15863 13.2795 2.0006 12.8981 2.00049 12.5004C2.00038 12.1028 2.15819 11.7213 2.43923 11.4399L6.49747 7.93457L6.49739 7.93462C6.09538 7.20596 5.93056 6.37009 6.02585 5.54336C6.12115 4.71664 6.47183 3.94019 7.02907 3.3221C7.58632 2.70402 8.32241 2.27504 9.13487 2.09489C9.94734 1.91474 10.7958 1.99237 11.562 2.31699L11.5619 2.31725Z" stroke="black" stroke-width="1.00001" stroke-linecap="round" stroke-linejoin="round"/>
</svg>
