<svg xmlns="http://www.w3.org/2000/svg" width="33" height="32" viewBox="0 0 33 32">
    <path fill="#69C6EE" fill-rule="nonzero" d="M2 24.783V29h13v2H0v-6.217c0-1.581.929-3.015 2.369-3.654 2.013-.892 5.487-1.984 10.606-2.116l1-.025.051 1.999-1 .026c-4.791.123-7.999 1.125-9.847 1.944A1.996 1.996 0 0 0 2 24.783zM6 8c0-4.411 3.589-8 8-8s8 3.589 8 8c0 4.248-3.421 9-8 9-4.579 0-8-4.752-8-9zm14 0c0-3.309-2.691-6-6-6S8 4.691 8 8c0 3.237 2.621 7 6 7s6-3.763 6-7zm6.173 12.792l5.974.868-4.324 4.216 1.021 5.952-5.345-2.811-5.345 2.811 1.021-5.952-4.324-4.216 5.976-.868 2.673-5.414 2.673 5.414zm.016 7.38l-.513-2.995 2.175-2.12-3.006-.437-1.345-2.725-1.345 2.725-3.006.437 2.175 2.12-.513 2.995 2.689-1.414 2.689 1.414z"/>
</svg>
