<svg xmlns="http://www.w3.org/2000/svg" width="24" height="24" viewBox="0 0 24 24">
    <path fill="#69C6EE" fill-rule="nonzero" d="M22.414 11.554l-2.747-1.474A5.478 5.478 0 0 0 21 6.5v-1C21 2.467 18.532 0 15.5 0A5.506 5.506 0 0 0 10 5.5v1c0 1.37.507 2.622 1.339 3.586l-.204.109A4.997 4.997 0 0 0 7 8c-2.757 0-5 2.243-5 5v1c0 1.085.357 2.083.946 2.904l-1.288.649A2.984 2.984 0 0 0 0 20.236V24h24v-9.8c0-1.11-.608-2.124-1.586-2.646zM12 5.5C12 3.57 13.57 2 15.5 2S19 3.57 19 5.5v1c0 1.93-1.57 3.5-3.5 3.5S12 8.43 12 6.5v-1zM4 13c0-1.654 1.346-3 3-3s3 1.346 3 3v1c0 1.654-1.346 3-3 3s-3-1.346-3-3v-1zm8 9H2v-1.764c0-.381.212-.724.556-.896l1.998-1.007A4.925 4.925 0 0 0 7 19c.893 0 1.72-.254 2.446-.666l2.001 1.008c.341.17.553.513.553.894V22zm10 0h-8v-1.764a2.985 2.985 0 0 0-1.655-2.682l-1.291-.65A4.964 4.964 0 0 0 12 14v-1a4.95 4.95 0 0 0-.096-.949l1.169-.623A5.451 5.451 0 0 0 15.5 12c.877 0 1.703-.211 2.439-.578l3.532 1.895c.326.175.529.513.529.883V22z"/>
</svg>
