<svg width="15" height="15" viewBox="0 0 15 15" fill="none" xmlns="http://www.w3.org/2000/svg">
<path d="M11.7192 13.125H3.28125C3.15693 13.125 3.0377 13.0756 2.94979 12.9877C2.86189 12.8998 2.8125 12.7806 2.8125 12.6563V2.34375C2.8125 2.21943 2.86189 2.1002 2.94979 2.01229C3.0377 1.92439 3.15693 1.875 3.28125 1.875H8.90671L12.188 5.15625V12.6562C12.188 12.7178 12.1758 12.7788 12.1523 12.8356C12.1287 12.8925 12.0942 12.9442 12.0507 12.9877C12.0071 13.0312 11.9555 13.0658 11.8986 13.0893C11.8417 13.1129 11.7808 13.125 11.7192 13.125Z" stroke="#004FA3" stroke-width="0.9375" stroke-linecap="round" stroke-linejoin="round"/>
<path d="M8.90625 1.875V5.15625H12.188" stroke="#004FA3" stroke-width="0.9375" stroke-linecap="round" stroke-linejoin="round"/>
<path d="M5.85938 9.14062L7.5 10.7812L9.14062 9.14062" stroke="#004FA3" stroke-width="0.9375" stroke-linecap="round" stroke-linejoin="round"/>
<path d="M7.5 7.03125V10.7812" stroke="#004FA3" stroke-width="0.9375" stroke-linecap="round" stroke-linejoin="round"/>
</svg>
