<svg width="50" height="50" viewBox="0 0 50 50" fill="none" xmlns="http://www.w3.org/2000/svg">
<path d="M39.063 43.75H10.9365C10.5221 43.75 10.1247 43.5854 9.83167 43.2924C9.53864 42.9993 9.37402 42.6019 9.37402 42.1875V7.8125C9.37402 7.3981 9.53864 7.00067 9.83167 6.70765C10.1247 6.41462 10.5221 6.25 10.9365 6.25H29.688L40.6255 17.1875V42.1875C40.6256 42.3927 40.5851 42.5959 40.5066 42.7854C40.4281 42.975 40.313 43.1473 40.1679 43.2924C40.0228 43.4375 39.8506 43.5525 39.661 43.6311C39.4714 43.7096 39.2682 43.75 39.063 43.75Z" stroke="#004FA3" stroke-width="3.1375" stroke-linecap="round" stroke-linejoin="round"/>
<path d="M29.6865 6.25V17.1875H40.6256" stroke="#004FA3" stroke-width="3.1375" stroke-linecap="round" stroke-linejoin="round"/>
<path d="M28.084 32.7734L31.209 35.8984" stroke="#004FA3" stroke-width="3.1375" stroke-linecap="round" stroke-linejoin="round"/>
<path d="M24.2168 34.375C27.2371 34.375 29.6855 31.9266 29.6855 28.9062C29.6855 25.8859 27.2371 23.4375 24.2168 23.4375C21.1965 23.4375 18.748 25.8859 18.748 28.9062C18.748 31.9266 21.1965 34.375 24.2168 34.375Z" stroke="#004FA3" stroke-width="3.1375" stroke-linecap="round" stroke-linejoin="round"/>
</svg>
