<svg width="15" height="15" viewBox="0 0 15 15" fill="none" xmlns="http://www.w3.org/2000/svg">
<path d="M12.0349 4.01172H2.22893C1.98276 4.01172 1.7832 4.21128 1.7832 4.45745V11.5891C1.7832 11.8353 1.98276 12.0348 2.22893 12.0348H12.0349C12.2811 12.0348 12.4807 11.8353 12.4807 11.5891V4.45745C12.4807 4.21128 12.2811 4.01172 12.0349 4.01172Z" stroke="black" stroke-width="0.783542" stroke-linecap="round" stroke-linejoin="round"/>
<path d="M9.36011 4.01143V3.11997C9.36011 2.88354 9.26619 2.6568 9.09901 2.48962C8.93183 2.32244 8.70508 2.22852 8.46865 2.22852H5.79429C5.55786 2.22852 5.33111 2.32244 5.16393 2.48962C4.99675 2.6568 4.90283 2.88354 4.90283 3.11997V4.01143" stroke="black" stroke-width="0.783542" stroke-linecap="round" stroke-linejoin="round"/>
<path d="M7.13184 6.46289V9.58298" stroke="black" stroke-width="0.783542" stroke-linecap="round" stroke-linejoin="round"/>
<path d="M8.69187 8.02344H5.57178" stroke="black" stroke-width="0.783542" stroke-linecap="round" stroke-linejoin="round"/>
</svg>
