<svg width="19" height="19" viewBox="0 0 19 19" fill="none" xmlns="http://www.w3.org/2000/svg">
<path d="M9.5 5.9375H16.0312C16.1887 5.9375 16.3397 6.00006 16.4511 6.11141C16.5624 6.22276 16.625 6.37378 16.625 6.53125V14.8438C16.625 15.0012 16.5624 15.1522 16.4511 15.2636C16.3397 15.3749 16.1887 15.4375 16.0312 15.4375H2.96875C2.81142 15.437 2.66066 15.3743 2.54941 15.2631C2.43816 15.1518 2.37546 15.0011 2.375 14.8438V7.71875" stroke="white" stroke-width="1.1875" stroke-linecap="round" stroke-linejoin="round"/>
<path d="M6.92708 7.71875H2.375V4.75C2.375 4.59253 2.43756 4.44151 2.54891 4.33016C2.66026 4.21881 2.81128 4.15625 2.96875 4.15625H6.92708C7.05555 4.15625 7.18056 4.19792 7.28333 4.275L9.5 5.9375L7.28333 7.6C7.18056 7.67708 7.05555 7.71875 6.92708 7.71875Z" stroke="white" stroke-width="1.1875" stroke-linecap="round" stroke-linejoin="round"/>
<path d="M7.71851 10.9844H11.281" stroke="white" stroke-width="1.1875" stroke-linecap="round" stroke-linejoin="round"/>
<path d="M9.49976 9.20312V12.7656" stroke="white" stroke-width="1.1875" stroke-linecap="round" stroke-linejoin="round"/>
</svg>
