<svg width="45" height="45" viewBox="0 0 45 45" fill="none" xmlns="http://www.w3.org/2000/svg">
<path d="M5.625 36.5625V11.25C5.625 10.877 5.77316 10.5194 6.03688 10.2556C6.3006 9.99191 6.65829 9.84375 7.03125 9.84375H16.4062C16.7105 9.84375 17.0066 9.94244 17.25 10.125L22.125 13.7813C22.3684 13.9638 22.6645 14.0625 22.9688 14.0625H35.1562C35.5292 14.0625 35.8869 14.2107 36.1506 14.4744C36.4143 14.7381 36.5625 15.0958 36.5625 15.4688V19.6875" stroke="#004FA3" stroke-width="2.8125" stroke-linecap="round" stroke-linejoin="round"/>
<path d="M5.625 36.5625L10.9295 20.6491C11.0228 20.3691 11.2019 20.1255 11.4413 19.9529C11.6808 19.7804 11.9684 19.6875 12.2636 19.6875H40.2364C40.4593 19.6875 40.6789 19.7404 40.8772 19.842C41.0756 19.9435 41.247 20.0907 41.3772 20.2715C41.5075 20.4523 41.593 20.6614 41.6266 20.8817C41.6602 21.1019 41.641 21.3271 41.5705 21.5384L36.5625 36.5625H5.625Z" stroke="#004FA3" stroke-width="2.8125" stroke-linecap="round" stroke-linejoin="round"/>
</svg>
