<svg width="14" height="14" viewBox="0 0 14 14" fill="none" xmlns="http://www.w3.org/2000/svg">
<path d="M7 4.375L11.8125 4.375C11.9285 4.375 12.0398 4.42109 12.1219 4.50314C12.2039 4.58519 12.25 4.69647 12.25 4.8125L12.25 10.9375C12.25 11.0535 12.2039 11.1648 12.1219 11.2469C12.0398 11.3289 11.9285 11.375 11.8125 11.375L2.1875 11.375C2.07157 11.3747 1.96049 11.3285 1.87851 11.2465C1.79654 11.1645 1.75034 11.0534 1.75 10.9375L1.75 5.6875" stroke="black" stroke-width="0.875" stroke-linecap="round" stroke-linejoin="round"/>
<path d="M5.10417 5.6875L1.75 5.6875L1.75 3.5C1.75 3.38397 1.79609 3.27269 1.87814 3.19064C1.96019 3.10859 2.07147 3.0625 2.1875 3.0625L5.10417 3.0625C5.19883 3.0625 5.29094 3.0932 5.36667 3.15L7 4.375L5.36667 5.6C5.29094 5.6568 5.19883 5.6875 5.10417 5.6875Z" stroke="black" stroke-width="0.875" stroke-linecap="round" stroke-linejoin="round"/>
<path d="M5.6875 8.09375L8.3125 8.09375" stroke="black" stroke-width="0.875" stroke-linecap="round" stroke-linejoin="round"/>
<path d="M7 6.78125L7 9.40625" stroke="black" stroke-width="0.875" stroke-linecap="round" stroke-linejoin="round"/>
</svg>
