<svg width="15" height="15" viewBox="0 0 15 15" fill="none" xmlns="http://www.w3.org/2000/svg">
<path d="M1.78296 11.5889V3.56584C1.78296 3.44763 1.82992 3.33426 1.91351 3.25067C1.9971 3.16708 2.11047 3.12012 2.22869 3.12012H5.2002C5.29664 3.12012 5.39049 3.1514 5.46764 3.20926L7.01283 4.36815C7.08998 4.42602 7.18382 4.4573 7.28026 4.4573H11.1432C11.2615 4.4573 11.3748 4.50426 11.4584 4.58785C11.542 4.67144 11.589 4.78481 11.589 4.90303V6.24021" stroke="black" stroke-width="0.783542" stroke-linecap="round" stroke-linejoin="round"/>
<path d="M1.78296 11.589L3.46428 6.54501C3.49386 6.45626 3.55062 6.37907 3.62651 6.32437C3.7024 6.26967 3.79358 6.24023 3.88713 6.24023H12.7535C12.8241 6.24023 12.8937 6.25702 12.9566 6.2892C13.0194 6.32138 13.0738 6.36805 13.1151 6.42534C13.1563 6.48264 13.1834 6.54892 13.1941 6.61874C13.2047 6.68856 13.1986 6.75991 13.1763 6.82691L11.589 11.589H1.78296Z" stroke="black" stroke-width="0.783542" stroke-linecap="round" stroke-linejoin="round"/>
</svg>
