<svg width="24" height="24" viewBox="0 0 24 24" fill="none" xmlns="http://www.w3.org/2000/svg">
<path fill-rule="evenodd" clip-rule="evenodd" d="M15.7531 3C14.2156 3 12.7589 3.64739 11.7069 4.6994C10.6549 3.64739 9.19831 3 7.66075 3C4.50473 3 1.99609 5.50864 1.99609 8.66466C1.99609 9.79759 2.40071 11.0114 3.0481 12.2253C3.0481 12.2253 3.0481 12.3062 3.12903 12.3062C5.22835 16.2877 9.85319 20.2692 10.979 21.2384L10.9791 21.2384C11.1117 21.3526 11.1958 21.425 11.2214 21.4506C11.3832 21.6125 11.5451 21.6125 11.7069 21.6125C11.8688 21.6125 12.0306 21.5315 12.1925 21.4506C12.5162 21.2078 17.9381 16.757 20.2849 12.3062C20.2849 12.3062 20.2849 12.2253 20.3658 12.2253C21.0132 11.0114 21.4178 9.79759 21.4178 8.66466C21.4178 5.50864 18.9092 3 15.7531 3ZM11.7083 19.7514C9.92795 18.2947 7.0147 15.4624 5.23438 12.711H7.66209C7.90486 12.711 8.14763 12.5491 8.30948 12.3873L9.28056 10.9307L11.8701 14.815C12.032 15.0578 12.2747 15.1387 12.5175 15.1387C12.7603 15.1387 13.0031 14.9769 13.1649 14.815L14.5406 12.711H18.1822C16.4018 15.4624 13.4886 18.2138 11.7083 19.7514ZM14.1334 11.0921H19.1506C19.5553 10.2019 19.798 9.39266 19.798 8.66435C19.798 6.39849 18.0177 4.61816 15.7518 4.61816C14.3761 4.61816 13.1623 5.26555 12.434 6.39849C12.1103 6.88403 11.382 6.88403 11.0583 6.39849C10.249 5.26555 9.03517 4.61816 7.65947 4.61816C5.3936 4.61816 3.61328 6.39849 3.61328 8.66435C3.61328 9.39266 3.85605 10.2019 4.26067 11.0921H7.25485L8.54963 8.98804C8.87332 8.5025 9.60164 8.5025 9.92533 8.98804L12.5149 12.8724L13.486 11.4158C13.6478 11.2539 13.8906 11.0921 14.1334 11.0921Z" fill="#404040"/>
</svg>
