<svg width="17" height="17" viewBox="0 0 17 17" fill="none" xmlns="http://www.w3.org/2000/svg">
<path d="M2.79297 3.1875H14.2036C14.3066 3.1875 14.4073 3.2174 14.4935 3.27355C14.5798 3.32971 14.6478 3.40971 14.6895 3.50383C14.7311 3.59795 14.7445 3.70214 14.728 3.80373C14.7116 3.90533 14.666 3.99995 14.5967 4.07611L10.2302 8.87928C10.1413 8.97707 10.0921 9.10448 10.0921 9.23663V12.9969C10.0921 13.0844 10.0705 13.1705 10.0292 13.2476C9.98792 13.3247 9.92826 13.3904 9.85549 13.439L7.73049 14.8556C7.65048 14.909 7.5575 14.9396 7.46145 14.9442C7.36541 14.9489 7.26991 14.9274 7.18513 14.882C7.10035 14.8366 7.02947 14.7691 6.98006 14.6866C6.93065 14.6041 6.90455 14.5098 6.90455 14.4136V9.23664C6.90455 9.10448 6.85529 8.97707 6.76639 8.87928L2.39988 4.07611C2.33064 3.99995 2.28502 3.90533 2.26856 3.80373C2.2521 3.70214 2.2655 3.59795 2.30713 3.50383C2.34877 3.40971 2.41685 3.32971 2.5031 3.27355C2.58935 3.2174 2.69005 3.1875 2.79297 3.1875V3.1875Z" stroke="#004FA3" stroke-linecap="round" stroke-linejoin="round"/>
</svg>
