<svg width="32" height="32" viewBox="0 0 32 32" fill="none" xmlns="http://www.w3.org/2000/svg">
<path d="M16 23C19.866 23 23 19.866 23 16C23 12.134 19.866 9 16 9C12.134 9 9 12.134 9 16C9 19.866 12.134 23 16 23Z" stroke="#004FA3" stroke-width="2.00735" stroke-linecap="round" stroke-linejoin="round"/>
<path d="M26.9984 15.0003L28.2868 13.0678C28.3707 12.9433 28.4262 12.8018 28.4494 12.6534C28.4725 12.5051 28.4627 12.3534 28.4206 12.2093C28.1776 11.4089 27.8572 10.6341 27.4641 9.89574C27.3921 9.76431 27.292 9.65039 27.1709 9.56213C27.0498 9.47386 26.9106 9.41343 26.7635 9.38514L24.4837 8.92915L23.0695 7.51496L22.6136 5.23514C22.5853 5.08795 22.5248 4.94883 22.4366 4.82771C22.3483 4.70658 22.2344 4.60644 22.1029 4.53443C21.3645 4.1414 20.5897 3.82111 19.7893 3.57808C19.6452 3.53601 19.4935 3.52619 19.3451 3.54932C19.1968 3.57245 19.0553 3.62796 18.9308 3.71191L16.9984 5.00019H14.9984L13.066 3.71191C12.9415 3.62796 12.8 3.57245 12.6516 3.54932C12.5033 3.52619 12.3516 3.53601 12.2075 3.57808C11.4071 3.82111 10.6322 4.14139 9.89386 4.53442C9.76241 4.60643 9.64848 4.70658 9.56021 4.82771C9.47194 4.94884 9.4115 5.08797 9.38321 5.23516L8.92734 7.51484L7.51303 8.92915L5.23332 9.38502C5.08614 9.41331 4.94702 9.47374 4.82589 9.56201C4.70477 9.65027 4.60462 9.7642 4.53261 9.89564C4.13952 10.634 3.81918 11.4089 3.57611 12.2093C3.53405 12.3534 3.52423 12.5051 3.54737 12.6534C3.5705 12.8018 3.62602 12.9433 3.70998 13.0678L4.99826 15.0002V17.0002L3.70997 18.9326C3.62602 19.0571 3.57051 19.1986 3.54738 19.3469C3.52425 19.4953 3.53406 19.647 3.57613 19.7911C3.81913 20.5915 4.13942 21.3664 4.53247 22.1048C4.60449 22.2362 4.70463 22.3501 4.82575 22.4384C4.94688 22.5266 5.086 22.5871 5.23317 22.6154L7.51303 23.0714L8.92721 24.4855L9.3831 26.7654C9.41138 26.9126 9.47181 27.0517 9.56008 27.1728C9.64834 27.2939 9.76226 27.3941 9.8937 27.4661C10.632 27.8592 11.4069 28.1795 12.2073 28.4225C12.3514 28.4645 12.503 28.4743 12.6514 28.4512C12.7997 28.4281 12.9412 28.3726 13.0657 28.2886L14.9983 27.0003H16.9983L18.9308 28.2887C19.0553 28.3727 19.1968 28.4282 19.3451 28.4513C19.4935 28.4744 19.6451 28.4646 19.7893 28.4226C20.5897 28.1795 21.3645 27.8593 22.1028 27.4662C22.2343 27.3942 22.3482 27.2941 22.4364 27.1729C22.5247 27.0518 22.5851 26.9127 22.6134 26.7655L23.0694 24.4857L24.4836 23.0714L26.7634 22.6155C26.9106 22.5872 27.0497 22.5268 27.1709 22.4385C27.292 22.3502 27.3921 22.2363 27.4641 22.1049C27.8572 21.3665 28.1776 20.5917 28.4206 19.7914C28.4627 19.6472 28.4725 19.4956 28.4494 19.3472C28.4262 19.1988 28.3707 19.0574 28.2868 18.9329L26.9984 17.0003V15.0003Z" stroke="#004FA3" stroke-width="2.00735" stroke-linecap="round" stroke-linejoin="round"/>
</svg>
