<svg width="14" height="14" viewBox="0 0 14 14" fill="none" xmlns="http://www.w3.org/2000/svg">
<path d="M7 10.0625C8.69137 10.0625 10.0625 8.69137 10.0625 7C10.0625 5.30863 8.69137 3.9375 7 3.9375C5.30863 3.9375 3.9375 5.30863 3.9375 7C3.9375 8.69137 5.30863 10.0625 7 10.0625Z" stroke="black" stroke-width="0.875" stroke-linecap="round" stroke-linejoin="round"/>
<path d="M11.8125 6.56301L12.3762 5.71752C12.4129 5.66305 12.4372 5.60116 12.4473 5.53625C12.4575 5.47134 12.4532 5.40499 12.4348 5.34192C12.3284 4.99176 12.1883 4.65278 12.0163 4.32975C11.9848 4.27225 11.941 4.22241 11.888 4.1838C11.835 4.14518 11.7741 4.11874 11.7098 4.10636L10.7124 3.90687L10.0937 3.28816L9.89416 2.29074C9.88179 2.22635 9.85535 2.16548 9.81673 2.11249C9.77811 2.0595 9.72827 2.01568 9.67076 1.98418C9.34772 1.81223 9.00872 1.6721 8.65855 1.56577C8.59549 1.54737 8.52914 1.54307 8.46423 1.55319C8.39932 1.56331 8.33743 1.5876 8.28296 1.62433L7.43752 2.18795H6.56252L5.71709 1.62433C5.66262 1.5876 5.60073 1.56331 5.53582 1.55319C5.47091 1.54307 5.40456 1.54737 5.3415 1.56577C4.99133 1.6721 4.65234 1.81223 4.3293 1.98418C4.27179 2.01568 4.22194 2.05949 4.18332 2.11249C4.1447 2.16548 4.11826 2.22635 4.10589 2.29075L3.90644 3.28811L3.28768 3.90687L2.29031 4.10631C2.22592 4.11869 2.16505 4.14513 2.11206 4.18374C2.05907 4.22236 2.01525 4.2722 1.98375 4.32971C1.81177 4.65275 1.67162 4.99175 1.56528 5.34193C1.54688 5.40499 1.54259 5.47134 1.55271 5.53625C1.56283 5.60116 1.58712 5.66305 1.62385 5.71751L2.18747 6.56295V7.43795L1.62384 8.28339C1.58712 8.33786 1.56283 8.39975 1.55271 8.46466C1.54259 8.52957 1.54688 8.59591 1.56529 8.65897C1.6716 9.00915 1.81173 9.34816 1.98369 9.6712C2.01519 9.7287 2.05901 9.77854 2.112 9.81716C2.16499 9.85577 2.22586 9.88221 2.29025 9.89459L3.28768 10.0941L3.90639 10.7128L4.10584 11.7102C4.11821 11.7746 4.14465 11.8355 4.18327 11.8885C4.22188 11.9415 4.27172 11.9853 4.32922 12.0168C4.65225 12.1888 4.99124 12.3289 5.34141 12.4352C5.40447 12.4536 5.47081 12.4579 5.53571 12.4478C5.60062 12.4377 5.6625 12.4134 5.71697 12.3766L6.56247 11.813H7.43747L8.28296 12.3767C8.33743 12.4134 8.39931 12.4377 8.46423 12.4478C8.52914 12.4579 8.59548 12.4536 8.65855 12.4352C9.00871 12.3289 9.34769 12.1888 9.67072 12.0168C9.72822 11.9853 9.77806 11.9415 9.81668 11.8885C9.85529 11.8355 9.88173 11.7747 9.89411 11.7103L10.0936 10.7128L10.7123 10.0941L11.7097 9.89464C11.7741 9.88226 11.835 9.85583 11.888 9.81721C11.941 9.77859 11.9848 9.72875 12.0163 9.67125C12.1883 9.34823 12.3284 9.00924 12.4348 8.65909C12.4532 8.59602 12.4575 8.52968 12.4473 8.46476C12.4372 8.39985 12.4129 8.33796 12.3762 8.28349L11.8125 7.43801V6.56301Z" stroke="black" stroke-width="0.875" stroke-linecap="round" stroke-linejoin="round"/>
</svg>
