<svg xmlns="http://www.w3.org/2000/svg" width="30" height="30" viewBox="0 0 30 30">
    <path fill="#69C6EE" fill-rule="nonzero" d="M25.5 4.3C22.7 1.6 19.1 0 15 0S7.3 1.6 4.6 4.2c0 0-.1 0-.1.1C1.7 7.1 0 10.8 0 15c0 4.2 1.7 7.9 4.5 10.7h.1C7.3 28.4 10.9 30 15 30c4.1 0 7.8-1.6 10.5-4.3h.1C28.3 22.9 30 19.2 30 15c0-4.2-1.7-7.9-4.5-10.7zm-.8 19.3c-.6-.5-1.2-.9-1.8-1.3.6-1.9 1-4 1.1-6.3h4c-.3 2.9-1.5 5.5-3.3 7.6zM2.1 16h4c.1 2.3.5 4.4 1.1 6.3-.6.4-1.2.8-1.8 1.3-1.9-2.1-3.1-4.7-3.3-7.6zm3.2-9.6c.6.5 1.2.9 1.8 1.3-.6 1.9-1 4-1.1 6.3H2c.3-2.9 1.5-5.5 3.3-7.6zM14 8c-1.5-.1-3-.5-4.4-1.1 1.1-2.5 2.6-4.2 4.4-4.7V8zm0 2v4H8c.1-1.9.4-3.7.9-5.3 1.6.7 3.3 1.1 5.1 1.3zm0 6v4c-1.8.1-3.5.5-5.1 1.3-.5-1.6-.8-3.4-.9-5.3h6zm0 6v5.8c-1.7-.5-3.3-2.2-4.4-4.7 1.4-.5 2.9-.9 4.4-1.1zm2 0c1.5.1 3 .5 4.4 1.1-1.1 2.5-2.6 4.2-4.4 4.7V22zm0-2v-4h6c-.1 1.9-.4 3.7-.9 5.3-1.6-.7-3.3-1.1-5.1-1.3zm0-6v-4c1.8-.1 3.5-.5 5.1-1.3.5 1.6.8 3.4.9 5.3h-6zm0-6V2.2c1.7.5 3.3 2.2 4.4 4.7-1.4.5-2.9.9-4.4 1.1zm4.7-4.7c.9.5 1.8 1 2.6 1.7-.4.3-.7.6-1.1.8-.5-.9-.9-1.7-1.5-2.5zM7.8 5.8c-.4-.2-.7-.5-1.1-.8.8-.6 1.6-1.2 2.6-1.7-.6.8-1 1.6-1.5 2.5zm0 18.4c.4.9.9 1.8 1.4 2.5-.9-.5-1.8-1-2.6-1.7.5-.3.8-.6 1.2-.8zm14.4 0c.4.3.8.5 1.1.8-.8.6-1.6 1.2-2.6 1.7.6-.8 1-1.6 1.5-2.5zM24 14c-.1-2.3-.5-4.4-1.1-6.3.6-.4 1.2-.8 1.8-1.3 1.8 2.1 3 4.7 3.2 7.6H24z"/>
</svg>
