<svg width="14" height="14" viewBox="0 0 14 14" fill="none" xmlns="http://www.w3.org/2000/svg">
<path d="M13.1642 6.66029L11.8125 7.33616L10.0625 3.9848L11.428 3.30205C11.5306 3.25075 11.6492 3.2418 11.7584 3.27711C11.8675 3.31242 11.9584 3.38918 12.0115 3.49085L13.3564 6.06647C13.3833 6.11797 13.3997 6.17432 13.4045 6.23221C13.4094 6.29011 13.4027 6.3484 13.3848 6.40367C13.367 6.45895 13.3382 6.51011 13.3004 6.55417C13.2625 6.59823 13.2162 6.63431 13.1642 6.66029V6.66029Z" stroke="black" stroke-width="0.875" stroke-linecap="round" stroke-linejoin="round"/>
<path d="M2.18734 7.27757L0.835594 6.6017C0.783627 6.57572 0.737356 6.53964 0.699482 6.49558C0.661608 6.45152 0.632889 6.40036 0.615001 6.34508C0.597113 6.2898 0.590415 6.23152 0.595298 6.17362C0.60018 6.11573 0.616546 6.05938 0.643439 6.00788L1.98837 3.43226C2.04146 3.33059 2.13235 3.25383 2.24148 3.21852C2.35061 3.1832 2.46924 3.19216 2.57183 3.24345L3.93734 3.92621L2.18734 7.27757Z" stroke="black" stroke-width="0.875" stroke-linecap="round" stroke-linejoin="round"/>
<path d="M11.8125 7.33596L10.9375 8.3596L8.92516 10.3719C8.87174 10.4254 8.80539 10.464 8.73258 10.4842C8.65977 10.5044 8.58298 10.5053 8.50969 10.487L5.34017 9.69464C5.28072 9.67978 5.22506 9.65259 5.17678 9.61484L2.1875 7.27734" stroke="black" stroke-width="0.875" stroke-linecap="round" stroke-linejoin="round"/>
<path d="M10.9375 8.35938L8.53121 6.60938L7.83121 7.13438C7.52829 7.36157 7.15986 7.48438 6.78121 7.48438C6.40256 7.48438 6.03413 7.36157 5.73121 7.13438L5.43477 6.91204C5.38462 6.87443 5.34314 6.82649 5.31314 6.77145C5.28314 6.71642 5.26531 6.65558 5.26087 6.59306C5.25642 6.53053 5.26547 6.46778 5.28738 6.40906C5.3093 6.35033 5.34358 6.297 5.38791 6.25268L7.52807 4.11252C7.5687 4.07189 7.61693 4.03966 7.67001 4.01768C7.72309 3.99569 7.77998 3.98437 7.83743 3.98438H10.0625" stroke="black" stroke-width="0.875" stroke-linecap="round" stroke-linejoin="round"/>
<path d="M3.96875 3.92554L6.77531 3.10733C6.87557 3.0781 6.98297 3.0857 7.07812 3.12875L8.96859 3.98415" stroke="black" stroke-width="0.875" stroke-linecap="round" stroke-linejoin="round"/>
<path d="M6.125 11.6409L4.47675 11.2288C4.40986 11.2121 4.34788 11.1798 4.29584 11.1346L3.0625 10.0625" stroke="black" stroke-width="0.875" stroke-linecap="round" stroke-linejoin="round"/>
</svg>
