<svg width="28" height="28" viewBox="0 0 28 28" fill="none" xmlns="http://www.w3.org/2000/svg">
<path d="M26.3285 13.3206L23.625 14.6723L20.125 7.9696L22.856 6.6041C23.0612 6.50151 23.2985 6.48359 23.5167 6.55422C23.735 6.62485 23.9168 6.77836 24.023 6.98171L26.7128 12.1329C26.7666 12.2359 26.7993 12.3486 26.8091 12.4644C26.8188 12.5802 26.8055 12.6968 26.7697 12.8073C26.7339 12.9179 26.6765 13.0202 26.6007 13.1083C26.525 13.1965 26.4324 13.2686 26.3285 13.3206V13.3206Z" stroke="#00468A" stroke-width="1.5" stroke-linecap="round" stroke-linejoin="round"/>
<path d="M4.37468 14.5551L1.67119 13.2034C1.56725 13.1514 1.47471 13.0793 1.39896 12.9912C1.32322 12.903 1.26578 12.8007 1.23 12.6902C1.19423 12.5796 1.18083 12.463 1.1906 12.3472C1.20036 12.2314 1.23309 12.1188 1.28688 12.0158L3.97673 6.86453C4.08291 6.66118 4.2647 6.50766 4.48296 6.43703C4.70122 6.36641 4.93848 6.38432 5.14366 6.48691L7.87468 7.85242L4.37468 14.5551Z" stroke="#00468A" stroke-width="1.5" stroke-linecap="round" stroke-linejoin="round"/>
<path d="M23.625 14.6719L21.875 16.7192L17.8503 20.7439C17.7435 20.8507 17.6108 20.9281 17.4652 20.9684C17.3195 21.0087 17.166 21.0107 17.0194 20.974L10.6803 19.3893C10.5614 19.3596 10.4501 19.3052 10.3536 19.2297L4.375 14.5547" stroke="#00468A" stroke-width="1.5" stroke-linecap="round" stroke-linejoin="round"/>
<path d="M21.8749 16.7188L17.0624 13.2188L15.6624 14.2688C15.0566 14.7231 14.3197 14.9688 13.5624 14.9688C12.8051 14.9688 12.0683 14.7231 11.4624 14.2688L10.8695 13.8241C10.7692 13.7489 10.6863 13.653 10.6263 13.5429C10.5663 13.4328 10.5306 13.3112 10.5217 13.1861C10.5128 13.0611 10.5309 12.9356 10.5748 12.8181C10.6186 12.7007 10.6872 12.594 10.7758 12.5054L15.0561 8.22503C15.1374 8.14378 15.2339 8.07933 15.34 8.03536C15.4462 7.99138 15.56 7.96875 15.6749 7.96875H20.1249" stroke="#00468A" stroke-width="1.5" stroke-linecap="round" stroke-linejoin="round"/>
<path d="M7.93799 7.85205L13.5511 6.21563C13.7516 6.15718 13.9664 6.17237 14.1567 6.25848L17.9377 7.96928" stroke="#00468A" stroke-width="1.5" stroke-linecap="round" stroke-linejoin="round"/>
<path d="M12.25 23.2817L8.9535 22.4576C8.81973 22.4242 8.69575 22.3596 8.59169 22.2691L6.125 20.125" stroke="#00468A" stroke-width="1.5" stroke-linecap="round" stroke-linejoin="round"/>
</svg>
