<svg width="15" height="15" viewBox="0 0 15 15" fill="none" xmlns="http://www.w3.org/2000/svg">
<path d="M12.3537 7.01418H10.6003C10.3678 7.01418 10.1448 7.10655 9.98038 7.27097C9.81597 7.43538 9.7236 7.65838 9.7236 7.8909V10.0827C9.7236 10.3152 9.81597 10.5382 9.98038 10.7026C10.1448 10.867 10.3678 10.9594 10.6003 10.9594H11.477C11.7095 10.9594 11.9325 10.867 12.097 10.7026C12.2614 10.5382 12.3537 10.3152 12.3537 10.0827V7.01418ZM12.3537 7.01418C12.3537 6.32004 12.2163 5.63276 11.9495 4.99195C11.6826 4.35115 11.2916 3.7695 10.7989 3.28053C10.3062 2.79156 9.72162 2.40494 9.07881 2.14295C8.43601 1.88097 7.7477 1.74879 7.05358 1.75406C6.35945 1.74879 5.67115 1.88097 5.02834 2.14295C4.38553 2.40494 3.80094 2.79156 3.30825 3.28053C2.81555 3.7695 2.42451 4.35115 2.15766 4.99195C1.8908 5.63276 1.75342 6.32004 1.75342 7.01418V10.0827C1.75342 10.3152 1.84579 10.5382 2.0102 10.7026C2.17462 10.867 2.39761 10.9594 2.63013 10.9594H3.50684C3.73936 10.9594 3.96236 10.867 4.12677 10.7026C4.29119 10.5382 4.38355 10.3152 4.38355 10.0827V7.8909C4.38355 7.65838 4.29119 7.43538 4.12677 7.27097C3.96236 7.10655 3.73936 7.01418 3.50684 7.01418H1.75342" stroke="black" stroke-width="0.876712" stroke-linecap="round" stroke-linejoin="round"/>
<path d="M12.3538 10.082V11.3971C12.3538 11.8621 12.1691 12.3081 11.8403 12.637C11.5114 12.9658 11.0654 13.1505 10.6004 13.1505H7.45215" stroke="black" stroke-width="0.876712" stroke-linecap="round" stroke-linejoin="round"/>
</svg>
