<svg xmlns="http://www.w3.org/2000/svg" width="24" height="24" viewBox="0 0 24 24">
    <path fill="#69C6EE" fill-rule="nonzero" d="M23.925 14c0-2.2-1.8-4-4-4s-4 1.8-4 4c0 1.9 1.3 3.4 3 3.9V22h-10v-5h2.3c1.5 0 2.8-1.1 3-2.6l1.6-11.1c.1-.6-.1-1.2-.5-1.6-.4-.4-1-.7-1.6-.7h-1.8c0-.6-.4-1-1-1s-1 .4-1 1v2c0 .6.4 1 1 1s1-.4 1-1h1.8l-1.6 11.1c-.1.5-.5.9-1 .9h-6.5c-.5 0-.9-.4-1-.9L2.125 3h1.8c0 .6.4 1 1 1s1-.4 1-1V1c0-.6-.4-1-1-1s-1 .4-1 1h-1.8c-.6 0-1.2.3-1.6.7-.4.4-.6 1-.5 1.6l1.6 11.1c.3 1.5 1.6 2.6 3 2.6h2.3v6c0 .6.4 1 1 1h12c.6 0 1-.4 1-1v-5.1c1.7-.5 3-2 3-3.9z"/>
</svg>
