<svg width="15" height="15" viewBox="0 0 15 15" fill="none" xmlns="http://www.w3.org/2000/svg">
<path d="M1.78271 7.1321H4.01135L4.90281 5.79492L6.68572 8.46929L7.57717 7.1321H8.91435" stroke="black" stroke-width="0.783542" stroke-linecap="round" stroke-linejoin="round"/>
<path d="M1.56643 5.34825C1.56221 5.27435 1.56009 5.20019 1.56006 5.12575C1.56017 4.45612 1.7922 3.80719 2.2167 3.2893C2.64119 2.77142 3.23195 2.41653 3.88853 2.28498C4.54512 2.15344 5.22699 2.25335 5.81824 2.56774C6.40948 2.88212 6.87359 3.39158 7.13166 4.00948L7.13165 4.00948C7.38972 3.39158 7.85383 2.88213 8.44507 2.56774C9.03631 2.25335 9.71819 2.15344 10.3748 2.28498C11.0314 2.41653 11.6221 2.77141 12.0466 3.2893C12.4711 3.80719 12.7031 4.45612 12.7032 5.12575C12.7032 8.91443 7.13165 12.0345 7.13165 12.0345C7.13165 12.0345 4.9061 10.7882 3.26817 8.91449" stroke="black" stroke-width="0.783542" stroke-linecap="round" stroke-linejoin="round"/>
</svg>
