<svg width="28" height="28" viewBox="0 0 28 28" fill="none" xmlns="http://www.w3.org/2000/svg">
<path d="M3.5 14H7.875L9.625 11.375L13.125 16.625L14.875 14H17.5" stroke="#00468A" stroke-width="1.75" stroke-linecap="round" stroke-linejoin="round"/>
<path d="M3.075 10.4993C3.06672 10.3542 3.06256 10.2086 3.0625 10.0625C3.06272 8.74797 3.51821 7.47408 4.35153 6.45742C5.18485 5.44076 6.34456 4.74409 7.63349 4.48585C8.92241 4.22761 10.261 4.42375 11.4217 5.04092C12.5823 5.65809 13.4934 6.65818 14 7.87118L14 7.87119C14.5066 6.65819 15.4177 5.65809 16.5783 5.04092C17.739 4.42376 19.0776 4.22762 20.3665 4.48585C21.6554 4.74409 22.8151 5.44076 23.6485 6.45742C24.4818 7.47408 24.9373 8.74797 24.9375 10.0625C24.9375 17.5 14 23.625 14 23.625C14 23.625 9.63105 21.1784 6.41566 17.5001" stroke="#00468A" stroke-width="1.75" stroke-linecap="round" stroke-linejoin="round"/>
</svg>
