<svg xmlns="http://www.w3.org/2000/svg" width="24" height="24" viewBox="0 0 24 24">
    <path fill="#69C6EE" fill-rule="nonzero" d="M20.5 3.5C18.2 1.2 15.2 0 12 0S5.8 1.2 3.5 3.5c-4.7 4.7-4.7 12.3 0 17C5.8 22.8 8.8 24 12 24s6.2-1.2 8.5-3.5c4.7-4.7 4.7-12.3 0-17zm.4 13.1l-3.1-3.1c.1-.5.2-1 .2-1.5s-.1-1-.2-1.5l3.1-3.1c1.5 2.9 1.5 6.3 0 9.2zM3.1 7.4l3.1 3.1c-.1.5-.2 1-.2 1.5s.1 1 .2 1.5l-3.1 3.1c-1.5-2.9-1.5-6.3 0-9.2zm6.1 7.4C8.4 14.1 8 13.1 8 12c0-1.1.4-2.1 1.2-2.8C9.9 8.4 10.9 8 12 8c1.1 0 2.1.4 2.8 1.2.8.7 1.2 1.7 1.2 2.8 0 1.1-.4 2.1-1.2 2.8-1.5 1.5-4.1 1.5-5.6 0zm7.4-11.7l-3.1 3.1c-.5-.1-1-.2-1.5-.2s-1 .1-1.6.2l-3-3.1C8.8 2.4 10.4 2 12 2c1.6 0 3.2.4 4.6 1.1zM7.4 20.9l3.1-3.1c.5.1 1 .2 1.6.2.6 0 1-.1 1.6-.2l3.1 3.1c-1.4.7-3 1.1-4.6 1.1-1.6 0-3.4-.4-4.8-1.1z"/>
</svg>
