<svg width="18" height="18" viewBox="0 0 18 18" fill="none" xmlns="http://www.w3.org/2000/svg">
<path d="M16.9255 8.56267L15.1875 9.43165L12.9375 5.12276L14.6932 4.24493C14.8251 4.17898 14.9776 4.16747 15.1179 4.21287C15.2582 4.25827 15.3751 4.35696 15.4433 4.48768L17.1725 7.79919C17.2071 7.86541 17.2281 7.93785 17.2344 8.01229C17.2407 8.08672 17.2321 8.16166 17.2091 8.23274C17.1861 8.30381 17.1492 8.36959 17.1005 8.42623C17.0518 8.48288 16.9923 8.52926 16.9255 8.56267V8.56267Z" stroke="black" stroke-width="1.16667" stroke-linecap="round" stroke-linejoin="round"/>
<path d="M2.81257 9.35646L1.07461 8.48748C1.0078 8.45407 0.948309 8.40769 0.899613 8.35104C0.850918 8.29439 0.813993 8.22861 0.790994 8.15754C0.767996 8.08647 0.759384 8.01153 0.765662 7.93709C0.771939 7.86266 0.79298 7.79022 0.827557 7.724L2.55675 4.41249C2.62501 4.28177 2.74187 4.18308 2.88218 4.13768C3.02249 4.09227 3.17502 4.10379 3.30692 4.16974L5.06257 5.04756L2.81257 9.35646Z" stroke="black" stroke-width="1.16667" stroke-linecap="round" stroke-linejoin="round"/>
<path d="M15.1875 9.43181L14.0625 10.7479L11.4752 13.3352C11.4065 13.4039 11.3212 13.4536 11.2276 13.4796C11.134 13.5055 11.0353 13.5067 10.941 13.4832L6.86593 12.4644C6.7895 12.4453 6.71793 12.4103 6.65586 12.3618L2.8125 9.35645" stroke="black" stroke-width="1.16667" stroke-linecap="round" stroke-linejoin="round"/>
<path d="M14.0626 10.748L10.9688 8.49805L10.0688 9.17305C9.67937 9.46515 9.20567 9.62305 8.71884 9.62305C8.23201 9.62305 7.75831 9.46515 7.36884 9.17305L6.9877 8.88719C6.92322 8.83883 6.86989 8.77719 6.83132 8.70643C6.79274 8.63567 6.76982 8.55745 6.76411 8.47706C6.7584 8.39668 6.77003 8.316 6.79821 8.2405C6.82639 8.16499 6.87046 8.09643 6.92745 8.03944L9.67909 5.2878C9.73132 5.23557 9.79333 5.19413 9.86158 5.16586C9.92982 5.1376 10.003 5.12305 10.0768 5.12305H12.9376" stroke="black" stroke-width="1.16667" stroke-linecap="round" stroke-linejoin="round"/>
<path d="M5.10254 5.0481L8.71098 3.99611C8.83988 3.95853 8.97797 3.9683 9.1003 4.02365L11.5309 5.12346" stroke="black" stroke-width="1.16667" stroke-linecap="round" stroke-linejoin="round"/>
<path d="M7.875 14.9668L5.75582 14.437C5.66982 14.4155 5.59013 14.374 5.52323 14.3159L3.9375 12.9375" stroke="black" stroke-width="1.16667" stroke-linecap="round" stroke-linejoin="round"/>
</svg>
