<svg width="10" height="11" viewBox="0 0 10 11" fill="none" xmlns="http://www.w3.org/2000/svg">
<ellipse cx="4.93351" cy="5.4" rx="1.64444" ry="1.65" fill="white"/>
<path fill-rule="evenodd" clip-rule="evenodd" d="M8.22222 0.450195H1.64444C0.875667 0.450195 0 1.32882 0 2.1002V8.7002C0 9.48642 0.860867 10.3502 1.64444 10.3502H8.22222C8.991 10.3502 9.86667 9.47157 9.86667 8.7002V2.1002C9.86667 1.32882 8.991 0.450195 8.22222 0.450195ZM4.93342 8.70059C3.1196 8.70059 1.64453 7.22054 1.64453 5.40059C1.64453 3.58064 3.1196 2.10059 4.93342 2.10059C6.74724 2.10059 8.22231 3.58064 8.22231 5.40059C8.22231 7.22054 6.74724 8.70059 4.93342 8.70059ZM7.55078 2.01075C7.55078 2.448 7.90434 2.80275 8.34011 2.80275C8.77589 2.80275 9.12945 2.448 9.12945 2.01075C9.12945 1.5735 8.77589 1.21875 8.34011 1.21875C7.90434 1.21875 7.55078 1.5735 7.55078 2.01075Z" fill="white"/>
</svg>
