<svg width="24" height="24" viewBox="0 0 24 24" fill="none" xmlns="http://www.w3.org/2000/svg">
<path d="M13.5006 21V3.74907C13.5006 3.55014 13.4216 3.35937 13.2809 3.21871C13.1403 3.07805 12.9495 2.99902 12.7506 2.99902H3.75004C3.55112 2.99902 3.36034 3.07805 3.21968 3.21871C3.07902 3.35937 3 3.55014 3 3.74907V21" stroke="#404040" stroke-width="1.50008" stroke-linecap="round" stroke-linejoin="round"/>
<path d="M21.0004 20.9997V9.74907C21.0004 9.55014 20.9214 9.35937 20.7807 9.21871C20.6401 9.07805 20.4493 8.99902 20.2504 8.99902H13.5" stroke="#404040" stroke-width="1.50008" stroke-linecap="round" stroke-linejoin="round"/>
<path d="M6 6.74902H9.00017" stroke="#404040" stroke-width="1.50008" stroke-linecap="round" stroke-linejoin="round"/>
<path d="M7.5 14.249H10.5002" stroke="#404040" stroke-width="1.50008" stroke-linecap="round" stroke-linejoin="round"/>
<path d="M6 18H9.00017" stroke="#404040" stroke-width="1.50008" stroke-linecap="round" stroke-linejoin="round"/>
<path d="M16.5 16.499H18.0001" stroke="#404040" stroke-width="1.50008" stroke-linecap="round" stroke-linejoin="round"/>
<path d="M16.5 12.749H18.0001" stroke="#404040" stroke-width="1.50008" stroke-linecap="round" stroke-linejoin="round"/>
</svg>
