<svg width="24" height="24" viewBox="0 0 24 24" fill="none" xmlns="http://www.w3.org/2000/svg">
<path d="M4.5 13.0869V19.5009C4.5 19.6998 4.57902 19.8906 4.71968 20.0312C4.86034 20.1719 5.05112 20.2509 5.25004 20.2509H18.7508C18.9497 20.2509 19.1405 20.1719 19.2812 20.0312C19.4218 19.8906 19.5008 19.6998 19.5008 19.5009V13.0871" stroke="#404040" stroke-width="1.50008" stroke-linecap="round" stroke-linejoin="round"/>
<path d="M5.06584 3.75H18.9352C19.0982 3.75 19.2567 3.80309 19.3868 3.90125C19.517 3.9994 19.6116 4.13727 19.6564 4.29399L21.001 9.0003H3L4.34466 4.29399C4.38944 4.13727 4.48405 3.9994 4.61417 3.90125C4.7443 3.80309 4.90285 3.75 5.06584 3.75Z" stroke="#404040" stroke-width="1.50008" stroke-linecap="round" stroke-linejoin="round"/>
<path d="M9.00034 9.00098V10.5011C9.00034 11.2968 8.68425 12.0599 8.12161 12.6225C7.55897 13.1851 6.79586 13.5012 6.00017 13.5012C5.20448 13.5012 4.44137 13.1851 3.87873 12.6225C3.31609 12.0599 3 11.2968 3 10.5011V9.00098" stroke="#404040" stroke-width="1.50008" stroke-linecap="round" stroke-linejoin="round"/>
<path d="M15.0003 9.00098V10.5011C15.0003 11.2968 14.6843 12.0599 14.1216 12.6225C13.559 13.1851 12.7959 13.5012 12.0002 13.5012C11.2045 13.5012 10.4414 13.1851 9.87873 12.6225C9.31609 12.0599 9 11.2968 9 10.5011V9.00098" stroke="#404040" stroke-width="1.50008" stroke-linecap="round" stroke-linejoin="round"/>
<path d="M21.0003 9.00098V10.5011C21.0003 11.2968 20.6843 12.0599 20.1216 12.6225C19.559 13.1851 18.7959 13.5012 18.0002 13.5012C17.2045 13.5012 16.4414 13.1851 15.8787 12.6225C15.3161 12.0599 15 11.2968 15 10.5011V9.00098" stroke="#404040" stroke-width="1.50008" stroke-linecap="round" stroke-linejoin="round"/>
</svg>
