<svg width="24" height="24" viewBox="0 0 24 24" fill="none" xmlns="http://www.w3.org/2000/svg">
<path d="M3.75 16.5006V6.75008C3.75 6.35224 3.90804 5.97069 4.18936 5.68936C4.47069 5.40804 4.85224 5.25 5.25008 5.25H18.7508C19.1487 5.25 19.5302 5.40804 19.8116 5.68936C20.0929 5.97069 20.2509 6.35224 20.2509 6.75008V16.5006" stroke="#404040" stroke-width="1.50008" stroke-linecap="round" stroke-linejoin="round"/>
<path d="M2.25 16.501H21.7511V18.0011C21.7511 18.3989 21.5931 18.7805 21.3117 19.0618C21.0304 19.3431 20.6489 19.5011 20.251 19.5011H3.75008C3.35224 19.5011 2.97069 19.3431 2.68936 19.0618C2.40804 18.7805 2.25 18.3989 2.25 18.0011V16.501Z" stroke="#404040" stroke-width="1.50008" stroke-linecap="round" stroke-linejoin="round"/>
<path d="M13.5011 8.25H10.501" stroke="#404040" stroke-width="1.50008" stroke-linecap="round" stroke-linejoin="round"/>
</svg>
