<svg width="14" height="14" viewBox="0 0 14 14" fill="none" xmlns="http://www.w3.org/2000/svg">
<path d="M3.70344 13.5002H0.974609V4.69922H3.70344V13.5002Z" fill="white"/>
<path d="M2.3374 3.49771C1.46185 3.49771 0.755859 2.78704 0.755859 1.91135C0.755859 1.03586 1.46185 0.325195 2.3374 0.325195C3.20948 0.325195 3.91748 1.03586 3.91748 1.91135C3.91748 2.78704 3.20948 3.49771 2.3374 3.49771Z" fill="white"/>
<path d="M13.9123 13.5007H11.1864V9.22077C11.1864 8.20019 11.1689 6.88723 9.76993 6.88723C8.35138 6.88723 8.13498 7.99959 8.13498 9.14772V13.5007H5.41211V4.69973H8.02531V5.90291H8.06272C8.42619 5.21099 9.31566 4.48132 10.6419 4.48132C13.4022 4.48132 13.9123 6.30367 13.9123 8.674L13.9123 13.5007Z" fill="white"/>
</svg>
