<svg width="18" height="18" viewBox="0 0 18 18" fill="none" xmlns="http://www.w3.org/2000/svg">
<path d="M9.00018 9.56286C10.2429 9.56286 11.2504 8.55542 11.2504 7.31268C11.2504 6.06994 10.2429 5.0625 9.00018 5.0625C7.75744 5.0625 6.75 6.06994 6.75 7.31268C6.75 8.55542 7.75744 9.56286 9.00018 9.56286Z" stroke="#004FA3" stroke-width="1.12509" stroke-linecap="round" stroke-linejoin="round"/>
<path d="M14.6259 7.31295C14.6259 12.3759 9.00045 16.3137 9.00045 16.3137C9.00045 16.3137 3.375 12.3759 3.375 7.31295C3.375 5.82099 3.96768 4.39013 5.02266 3.33516C6.07763 2.28018 7.50849 1.6875 9.00045 1.6875C10.4924 1.6875 11.9233 2.28018 12.9782 3.33516C14.0332 4.39013 14.6259 5.82099 14.6259 7.31295V7.31295Z" stroke="#004FA3" stroke-width="1.12509" stroke-linecap="round" stroke-linejoin="round"/>
</svg>
