<svg width="18" height="18" viewBox="0 0 18 18" fill="none" xmlns="http://www.w3.org/2000/svg">
<path d="M9.00061 9.56274C10.2433 9.56274 11.2507 8.55532 11.2507 7.31262C11.2507 6.06991 10.2433 5.0625 9.00061 5.0625C7.7579 5.0625 6.75049 6.06991 6.75049 7.31262C6.75049 8.55532 7.7579 9.56274 9.00061 9.56274Z" stroke="black" stroke-width="1.12506" stroke-linecap="round" stroke-linejoin="round"/>
<path d="M14.6256 7.3128C14.6256 12.3756 9.0003 16.3133 9.0003 16.3133C9.0003 16.3133 3.375 12.3756 3.375 7.3128C3.375 5.82087 3.96766 4.39006 5.02261 3.33511C6.07756 2.28016 7.50837 1.6875 9.0003 1.6875C10.4922 1.6875 11.923 2.28016 12.978 3.33511C14.0329 4.39006 14.6256 5.82087 14.6256 7.3128V7.3128Z" stroke="black" stroke-width="1.12506" stroke-linecap="round" stroke-linejoin="round"/>
</svg>
