<svg width="30" height="30" viewBox="0 0 30 30" fill="none" xmlns="http://www.w3.org/2000/svg">
<path d="M17.8125 9.375V23.8733C17.8125 24.0276 17.8506 24.1796 17.9234 24.3156C17.9963 24.4517 18.1016 24.5677 18.23 24.6533L19.5181 25.5121C19.6431 25.5954 19.7863 25.6475 19.9356 25.6639C20.085 25.6803 20.2361 25.6606 20.3762 25.6065C20.5163 25.5523 20.6414 25.4652 20.7408 25.3526C20.8403 25.24 20.9112 25.1052 20.9476 24.9594L22.5 18.75" stroke="#6EAB15" stroke-width="1.875" stroke-linecap="round" stroke-linejoin="round"/>
<path d="M22.5 18.7497C23.7432 18.7497 24.9355 18.2558 25.8146 17.3768C26.6936 16.4977 27.1875 15.3054 27.1875 14.0622C27.1875 12.819 26.6936 11.6267 25.8146 10.7476C24.9355 9.86857 23.7432 9.3747 22.5 9.3747H17.8125C17.8125 9.3747 11.4314 9.3747 5.29089 4.22459C5.15432 4.10965 4.98778 4.03609 4.81083 4.01257C4.63389 3.98905 4.4539 4.01654 4.29205 4.09181C4.1302 4.16709 3.9932 4.28701 3.89718 4.43749C3.80115 4.58796 3.75009 4.76272 3.75 4.94122V23.1832C3.75009 23.3617 3.80115 23.5365 3.89718 23.6869C3.9932 23.8374 4.1302 23.9573 4.29205 24.0326C4.4539 24.1079 4.63389 24.1354 4.81083 24.1118C4.98778 24.0883 5.15432 24.0148 5.29089 23.8998C11.4314 18.7497 17.8125 18.7497 17.8125 18.7497H22.5Z" stroke="#6EAB15" stroke-width="1.875" stroke-linecap="round" stroke-linejoin="round"/>
</svg>
