<svg width="45" height="45" viewBox="0 0 45 45" fill="none" xmlns="http://www.w3.org/2000/svg">
<path d="M26.7188 14.0625V35.8099C26.7188 36.0414 26.7759 36.2693 26.8851 36.4734C26.9944 36.6776 27.1523 36.8515 27.345 36.98L29.2772 38.2681C29.4647 38.3931 29.6795 38.4712 29.9035 38.4959C30.1275 38.5205 30.3541 38.4909 30.5643 38.4097C30.7745 38.3284 30.9621 38.1978 31.1112 38.0289C31.2604 37.86 31.3668 37.6577 31.4215 37.4391L33.75 28.125" stroke="#004FA3" stroke-width="2.8125" stroke-linecap="round" stroke-linejoin="round"/>
<path d="M33.75 28.1248C35.6148 28.1248 37.4032 27.384 38.7218 26.0654C40.0405 24.7468 40.7812 22.9584 40.7812 21.0936C40.7812 19.2287 40.0405 17.4403 38.7218 16.1217C37.4032 14.8031 35.6148 14.0623 33.75 14.0623H26.7188C26.7188 14.0623 17.1472 14.0623 7.93634 6.33713C7.73149 6.16472 7.48166 6.05438 7.21625 6.0191C6.95083 5.98381 6.68086 6.02505 6.43808 6.13796C6.1953 6.25088 5.9898 6.43076 5.84577 6.65647C5.70173 6.88218 5.62514 7.14433 5.625 7.41208V34.775C5.62514 35.0428 5.70173 35.3049 5.84577 35.5306C5.9898 35.7563 6.1953 35.9362 6.43808 36.0491C6.68086 36.162 6.95083 36.2033 7.21625 36.168C7.48166 36.1327 7.73149 36.0224 7.93634 35.85C17.1472 28.1248 26.7188 28.1248 26.7188 28.1248H33.75Z" stroke="#004FA3" stroke-width="2.8125" stroke-linecap="round" stroke-linejoin="round"/>
</svg>
