<svg width="24" height="24" viewBox="0 0 24 24" fill="none" xmlns="http://www.w3.org/2000/svg">
<path d="M20.7729 14.0221C19.2857 14.3632 17.7361 14.321 16.2697 13.8994C14.8032 13.4778 13.4679 12.6905 12.3889 11.6116C11.3099 10.5326 10.5227 9.19729 10.1011 7.73082C9.67948 6.26435 9.63727 4.71482 9.97841 3.22757L9.9783 3.22754C8.41251 3.58873 6.97196 4.36248 5.80621 5.46844C4.64045 6.5744 3.792 7.97225 3.34893 9.51686C2.90587 11.0615 2.88436 12.6965 3.28662 14.2523C3.68888 15.808 4.50026 17.2277 5.63651 18.364C6.77276 19.5002 8.19246 20.3116 9.74819 20.7139C11.3039 21.1161 12.939 21.0946 14.4836 20.6516C16.0282 20.2085 17.4261 19.3601 18.532 18.1943C19.638 17.0285 20.4117 15.588 20.7729 14.0222L20.7729 14.0221Z" stroke="#404040" stroke-width="1.50008" stroke-linecap="round" stroke-linejoin="round"/>
</svg>
