<svg xmlns="http://www.w3.org/2000/svg" width="24" height="24" viewBox="0 0 24 24">
    <g fill="#69C6EE" fill-rule="nonzero">
        <path d="M13.537 14.992C11.949 14.334 10.086 14 8 14s-3.949.334-5.537.992A3.984 3.984 0 0 0 0 18.688V24h16v-5.312a3.984 3.984 0 0 0-2.463-3.696zM14 22H2v-3.312c0-.813.482-1.539 1.229-1.848C4.573 16.282 6.178 16 8 16s3.427.282 4.772.84A1.99 1.99 0 0 1 14 18.688V22zM8 3C5.243 3 3 5.243 3 8s2.243 5 5 5 5-2.243 5-5-2.243-5-5-5zm0 8c-1.654 0-3-1.346-3-3s1.346-3 3-3 3 1.346 3 3-1.346 3-3 3zM22.884 9.499C22.023 8.815 20.563 8 18.5 8s-3.523.815-4.383 1.498A2.961 2.961 0 0 0 13 11.836V14h11v-2.164a2.96 2.96 0 0 0-1.116-2.337zM22 12h-7v-.164c0-.309.131-.589.36-.771.612-.486 1.653-1.065 3.14-1.065s2.528.579 3.141 1.066a.971.971 0 0 1 .359.77V12zM22 3.5C22 1.57 20.43 0 18.5 0S15 1.57 15 3.5 16.57 7 18.5 7 22 5.43 22 3.5zm-5 0c0-.827.673-1.5 1.5-1.5s1.5.673 1.5 1.5S19.327 5 18.5 5 17 4.327 17 3.5z"/>
    </g>
</svg>
