<svg width="30" height="30" viewBox="0 0 30 30" fill="none" xmlns="http://www.w3.org/2000/svg">
<path d="M18.7493 9.375L8.98668 19.2997C8.63504 19.6514 8.4375 20.1283 8.4375 20.6256C8.4375 21.1229 8.63504 21.5998 8.98668 21.9514C9.33831 22.303 9.81522 22.5006 10.3125 22.5006C10.8098 22.5006 11.2867 22.303 11.6383 21.9514L23.276 10.1517C23.6242 9.80343 23.9004 9.39003 24.0889 8.93506C24.2773 8.48009 24.3743 7.99246 24.3743 7.5C24.3743 7.00754 24.2773 6.51991 24.0889 6.06494C23.9004 5.60997 23.6242 5.19657 23.276 4.84835C22.9277 4.50013 22.5144 4.22391 22.0594 4.03545C21.6044 3.847 21.1168 3.75 20.6243 3.75C20.1319 3.75 19.6442 3.847 19.1893 4.03545C18.7343 4.22391 18.3209 4.50013 17.9727 4.84835L6.33502 16.6481C5.28013 17.703 4.6875 19.1337 4.6875 20.6256C4.6875 22.1174 5.28013 23.5482 6.33502 24.603C7.38992 25.6579 8.82066 26.2506 10.3125 26.2506C11.8043 26.2506 13.2351 25.6579 14.29 24.603L23.9056 15" stroke="#6EAB15" stroke-width="1.90323" stroke-linecap="round" stroke-linejoin="round"/>
</svg>
