<svg width="24" height="24" viewBox="0 0 24 24" fill="none" xmlns="http://www.w3.org/2000/svg">
<path d="M3.63772 14.0216C2.10118 15.5581 2.10118 18.0493 3.63772 19.5859C5.17426 21.1224 7.66549 21.1224 9.20203 19.5859L19.5857 9.20214C21.1223 7.6656 21.1223 5.17438 19.5857 3.63784C18.0492 2.1013 15.558 2.1013 14.0214 3.63784L3.63772 14.0216Z" stroke="#404040" stroke-width="1.61847" stroke-linecap="round" stroke-linejoin="round"/>
<path d="M8.57942 12.4286L8.29329 12.7147H8.29329L8.57942 12.4286ZM8.0072 12.4286L8.29329 12.7147H8.29329L8.0072 12.4286ZM10.8081 14.6575L10.5219 14.9436L10.8081 14.6575ZM10.808 15.2297L10.5219 14.9436L10.5219 14.9436L10.808 15.2297ZM10.2358 15.2297L10.5219 14.9436L10.2358 15.2297ZM8.00716 13.0008L7.72104 13.2869L8.00716 13.0008ZM12.9857 7.99548L13.2718 7.70939L12.9857 7.99548ZM12.4135 7.99544L12.6995 8.28157L12.4135 7.99544ZM15.2269 10.237L14.9407 10.5231L15.2269 10.237ZM15.2268 10.8092L14.9407 10.5231L14.9407 10.5231L15.2268 10.8092ZM14.6546 10.8092L14.3685 11.0952L14.6546 10.8092ZM12.4134 8.56766L12.6995 8.28157L12.4134 8.56766ZM8.86554 12.1425C8.54954 11.8264 8.03716 11.8264 7.72111 12.1424L8.29329 12.7147H8.29329L8.86554 12.1425ZM11.0942 14.3714L8.86554 12.1425L8.29329 12.7147L10.5219 14.9436L11.0942 14.3714ZM11.0941 15.5159C11.4102 15.1998 11.4102 14.6875 11.0942 14.3714L10.5219 14.9436L10.5219 14.9436L11.0941 15.5159ZM9.94968 15.5158C10.2657 15.8318 10.7781 15.8319 11.0941 15.5159L10.5219 14.9436L10.5219 14.9436L9.94968 15.5158ZM7.72104 13.2869L9.94968 15.5158L10.5219 14.9436L8.29329 12.7147L7.72104 13.2869ZM7.72111 12.1424C7.40506 12.4584 7.40503 12.9708 7.72104 13.2869L8.29329 12.7147L7.72111 12.1424ZM13.2718 7.70939C12.9558 7.39334 12.4434 7.39331 12.1274 7.70932L12.6995 8.28157V8.28157L13.2718 7.70939ZM15.513 9.95088L13.2718 7.70939L12.6995 8.28157L14.9407 10.5231L15.513 9.95088ZM15.5129 11.0953C15.829 10.7793 15.829 10.2669 15.513 9.95088L14.9407 10.5231L15.5129 11.0953ZM14.3685 11.0952C14.6845 11.4113 15.1969 11.4113 15.5129 11.0953L14.9407 10.5231L14.9407 10.5231L14.3685 11.0952ZM12.1273 8.85375L14.3685 11.0952L14.9407 10.5231L12.6995 8.28157L12.1273 8.85375ZM12.1274 7.70932C11.8113 8.02532 11.8113 8.53771 12.1273 8.85375L12.6995 8.28157L12.1274 7.70932Z" fill="#404040"/>
<path fill-rule="evenodd" clip-rule="evenodd" d="M12.0804 9.37947C12.339 9.63804 12.339 10.0573 12.0804 10.3158C11.8218 10.5744 11.4026 10.5744 11.144 10.3158C10.8855 10.0573 10.8855 9.63804 11.144 9.37947C11.4026 9.12091 11.8218 9.12091 12.0804 9.37947ZM13.8422 11.1451C14.1008 11.4037 14.1008 11.8229 13.8422 12.0815C13.5836 12.34 13.1644 12.34 12.9058 12.0815C12.6473 11.8229 12.6473 11.4037 12.9058 11.1451C13.1644 10.8865 13.5836 10.8865 13.8422 11.1451ZM10.3149 12.0815C10.5734 11.8229 10.5734 11.4037 10.3149 11.1451C10.0563 10.8865 9.63706 10.8865 9.3785 11.1451C9.11993 11.4037 9.11993 11.8229 9.3785 12.0815C9.63706 12.34 10.0563 12.34 10.3149 12.0815ZM12.0805 11.1451C12.339 11.4037 12.339 11.8229 12.0805 12.0815C11.8219 12.34 11.4027 12.34 11.1441 12.0815C10.8856 11.8229 10.8856 11.4037 11.1441 11.1451C11.4027 10.8865 11.8219 10.8865 12.0805 11.1451ZM12.0804 13.8472C12.339 13.5886 12.339 13.1694 12.0804 12.9108C11.8218 12.6523 11.4026 12.6523 11.144 12.9108C10.8855 13.1694 10.8855 13.5886 11.144 13.8472C11.4026 14.1058 11.8218 14.1058 12.0804 13.8472Z" fill="#404040"/>
</svg>
