<svg width="18" height="18" viewBox="0 0 18 18" fill="none" xmlns="http://www.w3.org/2000/svg">
<path d="M6.50253 8.77632C7.08606 9.9693 8.05307 10.9319 9.24869 11.51C9.33617 11.5515 9.43293 11.5694 9.52946 11.5621C9.62598 11.5548 9.71894 11.5225 9.79919 11.4684L11.5596 10.2944C11.6375 10.2425 11.7271 10.2108 11.8203 10.2023C11.9135 10.1937 12.0073 10.2085 12.0933 10.2454L15.3868 11.6569C15.4987 11.7044 15.5921 11.787 15.653 11.8923C15.7138 11.9975 15.7388 12.1196 15.7242 12.2403C15.6201 13.0549 15.2227 13.8036 14.6063 14.3462C13.99 14.8889 13.197 15.1882 12.3758 15.1883C9.83943 15.1883 7.40697 14.1807 5.61351 12.3872C3.82006 10.5938 2.8125 8.16133 2.8125 5.625C2.81254 4.80381 3.11191 4.01079 3.65455 3.39442C4.19718 2.77806 4.94588 2.38062 5.76045 2.27652C5.88112 2.26192 6.00327 2.28693 6.1085 2.34778C6.21373 2.40864 6.29633 2.50204 6.34385 2.61393L7.75658 5.91029C7.79312 5.99555 7.80801 6.08853 7.79992 6.18094C7.79183 6.27335 7.76102 6.36232 7.71022 6.43994L6.54038 8.22741C6.48713 8.30782 6.45566 8.40066 6.44902 8.49687C6.44239 8.59308 6.46083 8.68937 6.50253 8.77632V8.77632Z" stroke="#004FA3" stroke-width="1.12509" stroke-linecap="round" stroke-linejoin="round"/>
</svg>
