<svg width="18" height="18" viewBox="0 0 18 18" fill="none" xmlns="http://www.w3.org/2000/svg">
<path d="M11.2095 2.8125C12.1631 3.06897 13.0326 3.57151 13.7309 4.26978C14.4291 4.96806 14.9317 5.83755 15.1881 6.79117" stroke="black" stroke-width="1.12506" stroke-linecap="round" stroke-linejoin="round"/>
<path d="M10.627 4.98633C11.1991 5.14021 11.7208 5.44173 12.1398 5.8607C12.5588 6.27966 12.8603 6.80136 13.0142 7.37353" stroke="black" stroke-width="1.12506" stroke-linecap="round" stroke-linejoin="round"/>
<path d="M6.50243 8.77615C7.08594 9.96909 8.05293 10.9317 9.24851 11.5098C9.33599 11.5512 9.43275 11.5692 9.52927 11.5619C9.6258 11.5546 9.71876 11.5222 9.799 11.4681L11.5594 10.2942C11.6373 10.2423 11.7268 10.2106 11.82 10.2021C11.9132 10.1935 12.0071 10.2083 12.0931 10.2452L15.3865 11.6567C15.4984 11.7042 15.5918 11.7868 15.6526 11.892C15.7135 11.9972 15.7385 12.1194 15.7239 12.24C15.6198 13.0546 15.2224 13.8033 14.606 14.3459C13.9897 14.8885 13.1967 15.1879 12.3755 15.1879C9.83924 15.1879 7.40685 14.1804 5.61344 12.387C3.82003 10.5936 2.8125 8.16117 2.8125 5.62491C2.81254 4.80374 3.1119 4.01074 3.65452 3.39439C4.19714 2.77805 4.94582 2.38062 5.76037 2.27652C5.88104 2.26192 6.00319 2.28693 6.10841 2.34778C6.21363 2.40864 6.29623 2.50204 6.34376 2.61392L7.75644 5.91019C7.79298 5.99545 7.80787 6.08842 7.79979 6.18083C7.7917 6.27324 7.76088 6.36221 7.71008 6.43983L6.54028 8.22725C6.48703 8.30765 6.45556 8.4005 6.44893 8.4967C6.44229 8.59291 6.46073 8.6892 6.50243 8.77615V8.77615Z" stroke="black" stroke-width="1.12506" stroke-linecap="round" stroke-linejoin="round"/>
</svg>
