<svg width="17" height="17" viewBox="0 0 17 17" fill="none" xmlns="http://www.w3.org/2000/svg">
<path d="M5.21991 8.75133C5.86777 10.0767 6.9414 11.1462 8.26884 11.7885C8.36596 11.8346 8.47339 11.8545 8.58056 11.8464C8.68773 11.8383 8.79094 11.8024 8.88003 11.7422L10.8346 10.438C10.921 10.3803 11.0205 10.3451 11.124 10.3356C11.2274 10.3261 11.3316 10.3426 11.4271 10.3835L15.0837 11.9517C15.2079 12.0045 15.3116 12.0963 15.3792 12.2132C15.4468 12.3301 15.4745 12.4658 15.4583 12.5999C15.3428 13.5049 14.9015 14.3367 14.2172 14.9396C13.5329 15.5425 12.6524 15.8751 11.7407 15.8751C8.9247 15.8751 6.22407 14.7557 4.23288 12.7631C2.24169 10.7706 1.12305 8.06806 1.12305 5.25014C1.12309 4.33777 1.45547 3.45671 2.05793 2.77192C2.66039 2.08712 3.49163 1.64556 4.39601 1.5299C4.52999 1.51368 4.66561 1.54146 4.78244 1.60908C4.89926 1.67669 4.99097 1.78046 5.04374 1.90476L6.61222 5.5671C6.65279 5.66183 6.66932 5.76513 6.66034 5.8678C6.65136 5.97047 6.61714 6.06932 6.56075 6.15556L5.26193 8.14147C5.20282 8.23081 5.16787 8.33396 5.1605 8.44085C5.15314 8.54775 5.17361 8.65472 5.21991 8.75133V8.75133Z" stroke="white" stroke-width="1.25" stroke-linecap="round" stroke-linejoin="round"/>
</svg>
