<svg width="30" height="30" viewBox="0 0 30 30" fill="none" xmlns="http://www.w3.org/2000/svg">
<path d="M23.4374 26.25H6.56152C6.31288 26.25 6.07443 26.1512 5.89861 25.9754C5.7228 25.7996 5.62402 25.5611 5.62402 25.3125V4.6875C5.62402 4.43886 5.7228 4.2004 5.89861 4.02459C6.07443 3.84877 6.31288 3.75 6.56152 3.75H17.8124L24.3749 10.3125V25.3125C24.3749 25.4356 24.3507 25.5575 24.3036 25.6713C24.2565 25.785 24.1874 25.8884 24.1004 25.9754C24.0133 26.0625 23.9099 26.1315 23.7962 26.1786C23.6825 26.2258 23.5606 26.25 23.4374 26.25Z" stroke="#6EAB15" stroke-width="1.875" stroke-linecap="round" stroke-linejoin="round"/>
<path d="M17.8125 3.75V10.3125H24.3759" stroke="#6EAB15" stroke-width="1.875" stroke-linecap="round" stroke-linejoin="round"/>
<path d="M11.7188 18.2812L15 21.5625L18.2812 18.2812" stroke="#6EAB15" stroke-width="1.875" stroke-linecap="round" stroke-linejoin="round"/>
<path d="M15 14.0625V21.5625" stroke="#6EAB15" stroke-width="1.875" stroke-linecap="round" stroke-linejoin="round"/>
</svg>
