<svg width="15" height="15" viewBox="0 0 15 15" fill="none" xmlns="http://www.w3.org/2000/svg">
<path d="M7.01367 10.5205V13.1506" stroke="black" stroke-width="0.876712" stroke-linecap="round" stroke-linejoin="round"/>
<path d="M11.7819 9.98977C11.6429 9.31696 11.2464 8.72515 10.677 8.34074C10.6242 8.30429 10.5801 8.25669 10.5478 8.20132C10.5154 8.14595 10.4956 8.08415 10.4898 8.02029L9.90247 2.14863C9.89165 2.04047 9.84103 1.94018 9.76043 1.86724C9.67983 1.7943 9.575 1.75391 9.46629 1.75391H4.56106C4.45235 1.75391 4.34752 1.7943 4.26692 1.86724C4.18632 1.94018 4.1357 2.04047 4.12488 2.14863L3.53758 8.02029C3.53173 8.08415 3.51193 8.14595 3.47959 8.20132C3.44724 8.25669 3.40313 8.30429 3.35037 8.34074C2.78096 8.72515 2.38442 9.31696 2.24543 9.98977C2.23185 10.0537 2.2327 10.1199 2.24792 10.1835C2.26314 10.2471 2.29234 10.3065 2.33341 10.3574C2.37447 10.4083 2.42637 10.4494 2.48531 10.4777C2.54426 10.506 2.60878 10.5208 2.67417 10.521H11.3532C11.4186 10.5208 11.4831 10.506 11.542 10.4777C11.601 10.4494 11.6529 10.4083 11.6939 10.3574C11.735 10.3065 11.7642 10.2471 11.7794 10.1835C11.7946 10.1199 11.7955 10.0537 11.7819 9.98977Z" stroke="black" stroke-width="0.876712" stroke-linecap="round" stroke-linejoin="round"/>
</svg>
