<svg width="20" height="20" viewBox="0 0 20 20" fill="none" xmlns="http://www.w3.org/2000/svg">
<path d="M9.99997 17.4999C14.1421 17.4999 17.4999 14.1421 17.4999 9.99997C17.4999 5.85785 14.1421 2.5 9.99997 2.5C5.85785 2.5 2.5 5.85785 2.5 9.99997C2.5 14.1421 5.85785 17.4999 9.99997 17.4999Z" stroke="#404040" stroke-width="1.25" stroke-linecap="round" stroke-linejoin="round"/>
<path d="M9.99999 11.875V11.25C10.4944 11.25 10.9778 11.1034 11.3889 10.8287C11.8 10.554 12.1205 10.1635 12.3097 9.7067C12.4989 9.24988 12.5484 8.74722 12.4519 8.26227C12.3555 7.77732 12.1174 7.33186 11.7678 6.98223C11.4181 6.6326 10.9727 6.3945 10.4877 6.29804C10.0028 6.20158 9.5001 6.25108 9.04329 6.4403C8.58647 6.62952 8.19603 6.94995 7.92132 7.36107C7.64662 7.77219 7.5 8.25554 7.5 8.74999" stroke="#404040" stroke-width="1.25" stroke-linecap="round" stroke-linejoin="round"/>
<path d="M10 15.3125C10.5178 15.3125 10.9375 14.8928 10.9375 14.375C10.9375 13.8572 10.5178 13.4375 10 13.4375C9.48223 13.4375 9.0625 13.8572 9.0625 14.375C9.0625 14.8928 9.48223 15.3125 10 15.3125Z" fill="#404040"/>
</svg>
