<svg width="22" height="22" viewBox="0 0 22 22" fill="none" xmlns="http://www.w3.org/2000/svg">
<path d="M10.75 17.6562C11.4231 17.6562 11.9687 17.1106 11.9687 16.4375C11.9687 15.7644 11.4231 15.2188 10.75 15.2188C10.0769 15.2188 9.53125 15.7644 9.53125 16.4375C9.53125 17.1106 10.0769 17.6562 10.75 17.6562Z" fill="#00468A"/>
<path d="M10.75 13.1875V12.375C11.3928 12.375 12.0211 12.1844 12.5556 11.8273C13.0901 11.4702 13.5066 10.9626 13.7526 10.3687C13.9986 9.77486 14.063 9.1214 13.9376 8.49096C13.8122 7.86052 13.5026 7.28143 13.0481 6.8269C12.5936 6.37238 12.0145 6.06285 11.384 5.93745C10.7536 5.81205 10.1001 5.87641 9.50628 6.12239C8.91242 6.36838 8.40484 6.78494 8.04772 7.3194C7.69061 7.85386 7.5 8.48221 7.5 9.125" stroke="#00468A" stroke-width="1.625" stroke-linecap="round" stroke-linejoin="round"/>
<path d="M10.75 20.5C16.1348 20.5 20.5 16.1348 20.5 10.75C20.5 5.36522 16.1348 1 10.75 1C5.36522 1 1 5.36522 1 10.75C1 16.1348 5.36522 20.5 10.75 20.5Z" stroke="#00468A" stroke-width="1.625" stroke-linecap="round" stroke-linejoin="round"/>
</svg>
