<svg width="65" height="65" viewBox="0 0 65 65" fill="none" xmlns="http://www.w3.org/2000/svg">
<circle cx="32.5" cy="32.5" r="32.5" fill="#F0F7FF"/>
<path d="M32.8235 39.8232C36.6895 39.8232 39.8235 36.6892 39.8235 32.8232C39.8235 28.9572 36.6895 25.8232 32.8235 25.8232C28.9575 25.8232 25.8235 28.9572 25.8235 32.8232C25.8235 36.6892 28.9575 39.8232 32.8235 39.8232Z" stroke="#004FA3" stroke-width="2.00735" stroke-linecap="round" stroke-linejoin="round"/>
<path d="M43.8233 31.8236L45.1117 29.891C45.1957 29.7665 45.2512 29.6251 45.2743 29.4767C45.2975 29.3283 45.2877 29.1767 45.2456 29.0325C45.0025 28.2321 44.6822 27.4573 44.2891 26.719C44.2171 26.5876 44.1169 26.4736 43.9958 26.3854C43.8747 26.2971 43.7356 26.2367 43.5884 26.2084L41.3087 25.7524L39.8945 24.3382L39.4385 22.0584C39.4102 21.9112 39.3498 21.7721 39.2615 21.6509C39.1732 21.5298 39.0593 21.4297 38.9279 21.3577C38.1895 20.9646 37.4146 20.6443 36.6143 20.4013C36.4701 20.3592 36.3185 20.3494 36.1701 20.3726C36.0217 20.3957 35.8803 20.4512 35.7558 20.5352L33.8233 21.8234H31.8233L29.8909 20.5352C29.7664 20.4512 29.6249 20.3957 29.4766 20.3726C29.3282 20.3494 29.1766 20.3592 29.0324 20.4013C28.232 20.6443 27.4572 20.9646 26.7188 21.3577C26.5874 21.4297 26.4734 21.5298 26.3852 21.651C26.2969 21.7721 26.2364 21.9112 26.2082 22.0584L25.7523 24.3381L24.338 25.7524L22.0583 26.2083C21.9111 26.2366 21.772 26.297 21.6508 26.3853C21.5297 26.4735 21.4296 26.5874 21.3576 26.7189C20.9645 27.4573 20.6441 28.2321 20.4011 29.0325C20.359 29.1767 20.3492 29.3283 20.3723 29.4767C20.3955 29.6251 20.451 29.7665 20.5349 29.891L21.8232 31.8234V33.8234L20.5349 35.7559C20.451 35.8804 20.3955 36.0218 20.3723 36.1702C20.3492 36.3186 20.359 36.4702 20.4011 36.6143C20.6441 37.4148 20.9644 38.1896 21.3574 38.928C21.4294 39.0594 21.5296 39.1734 21.6507 39.2616C21.7718 39.3499 21.9109 39.4103 22.0581 39.4386L24.338 39.8946L25.7522 41.3088L26.208 43.5886C26.2363 43.7358 26.2968 43.8749 26.385 43.9961C26.4733 44.1172 26.5872 44.2173 26.7186 44.2894C27.457 44.6824 28.2318 45.0027 29.0322 45.2457C29.1763 45.2878 29.328 45.2976 29.4763 45.2745C29.6247 45.2513 29.7661 45.1958 29.8906 45.1119L31.8232 43.8236H33.8232L35.7557 45.112C35.8802 45.1959 36.0217 45.2514 36.1701 45.2746C36.3185 45.2977 36.4701 45.2879 36.6142 45.2458C37.4146 45.0028 38.1894 44.6825 38.9278 44.2895C39.0592 44.2175 39.1731 44.1173 39.2614 43.9962C39.3497 43.8751 39.4101 43.7359 39.4384 43.5888L39.8944 41.3089L41.3086 39.8946L43.5884 39.4387C43.7356 39.4104 43.8747 39.35 43.9958 39.2617C44.1169 39.1735 44.2171 39.0595 44.2891 38.9281C44.6822 38.1898 45.0025 37.415 45.2456 36.6146C45.2877 36.4705 45.2975 36.3188 45.2743 36.1704C45.2512 36.0221 45.1957 35.8806 45.1117 35.7561L43.8233 33.8236V31.8236Z" stroke="#004FA3" stroke-width="2.00735" stroke-linecap="round" stroke-linejoin="round"/>
</svg>
