<svg width="65" height="65" viewBox="0 0 65 65" fill="none" xmlns="http://www.w3.org/2000/svg">
<circle cx="32.5" cy="32.5" r="32.5" fill="#F0F7FF"/>
<path d="M47.0895 34.223L43.9998 35.7678L39.9998 28.1076L43.1209 26.547C43.3554 26.4297 43.6266 26.4093 43.876 26.49C44.1254 26.5707 44.3332 26.7461 44.4546 26.9785L47.5287 32.8657C47.5901 32.9834 47.6276 33.1122 47.6387 33.2445C47.6499 33.3768 47.6346 33.5101 47.5937 33.6364C47.5528 33.7628 47.4871 33.8797 47.4006 33.9804C47.314 34.0811 47.2082 34.1636 47.0895 34.223V34.223Z" stroke="#004FA3" stroke-width="2.00735" stroke-linecap="round" stroke-linejoin="round"/>
<path d="M21.9999 35.634L18.9102 34.0892C18.7914 34.0298 18.6857 33.9473 18.5991 33.8466C18.5125 33.7459 18.4469 33.629 18.406 33.5026C18.3651 33.3763 18.3498 33.243 18.361 33.1107C18.3721 32.9784 18.4095 32.8496 18.471 32.7319L21.5451 26.8448C21.6665 26.6124 21.8742 26.4369 22.1237 26.3562C22.3731 26.2755 22.6443 26.2959 22.8788 26.4132L25.9999 27.9738L21.9999 35.634Z" stroke="#004FA3" stroke-width="2.00735" stroke-linecap="round" stroke-linejoin="round"/>
<path d="M43.9998 35.7678L41.9998 38.1075L37.4001 42.7072C37.278 42.8293 37.1264 42.9177 36.9599 42.9638C36.7935 43.0099 36.618 43.0121 36.4505 42.9702L29.2059 41.159C29.07 41.1251 28.9427 41.0629 28.8324 40.9766L21.9998 35.6338" stroke="#004FA3" stroke-width="2.00735" stroke-linecap="round" stroke-linejoin="round"/>
<path d="M42.0001 38.1074L36.5001 34.1074L34.9001 35.3074C34.2077 35.8267 33.3655 36.1074 32.5001 36.1074C31.6346 36.1074 30.7924 35.8267 30.1001 35.3074L29.4225 34.7992C29.3078 34.7133 29.213 34.6037 29.1445 34.4779C29.0759 34.3521 29.0351 34.213 29.025 34.0701C29.0148 33.9272 29.0355 33.7838 29.0856 33.6496C29.1357 33.5153 29.214 33.3934 29.3154 33.2921L34.2072 28.4003C34.3 28.3075 34.4103 28.2338 34.5316 28.1835C34.6529 28.1333 34.7829 28.1074 34.9143 28.1074H40.0001" stroke="#004FA3" stroke-width="2.00735" stroke-linecap="round" stroke-linejoin="round"/>
<path d="M26.0718 27.9736L32.4868 26.1034C32.7159 26.0366 32.9614 26.054 33.1789 26.1524L37.5 28.1076" stroke="#004FA3" stroke-width="2.00735" stroke-linecap="round" stroke-linejoin="round"/>
<path d="M30.9998 45.6077L27.2323 44.6658C27.0794 44.6276 26.9378 44.5538 26.8188 44.4504L23.9998 42" stroke="#004FA3" stroke-width="2.00735" stroke-linecap="round" stroke-linejoin="round"/>
</svg>
