<svg xmlns="http://www.w3.org/2000/svg" width="28" height="35" viewBox="0 0 28 35">
    <g fill="none" fill-rule="nonzero">
        <path fill="#FFF" d="M14 0c7.716 0 14 6.172 14 14.13 0 3.531-1.988 7.83-5.775 12.95a70.385 70.385 0 0 1-3.897 4.79 58.329 58.329 0 0 1-1.973 2.132c-.654.661-1.433.998-2.355.998-.922 0-1.701-.337-2.355-.998a58.329 58.329 0 0 1-1.973-2.131 70.385 70.385 0 0 1-3.897-4.791C1.988 21.96 0 17.66 0 14.13 0 6.172 6.284 0 14 0z"/>
        <path fill="#FF5800" stroke="#FFF" d="M14 1.5c6.715 0 12.5 5.332 12.5 12.63 0 3.273-2.05 7.42-5.481 12.058a68.982 68.982 0 0 1-3.814 4.688 56.5 56.5 0 0 1-1.916 2.071c-.371.375-.767.553-1.289.553-.522 0-.918-.178-1.289-.553a56.5 56.5 0 0 1-1.916-2.071 68.982 68.982 0 0 1-3.814-4.688C3.551 21.549 1.5 17.403 1.5 14.13 1.5 6.832 7.285 1.5 14 1.5zm0 16c1.99 0 3.5-1.51 3.5-3.5s-1.51-3.5-3.5-3.5-3.5 1.51-3.5 3.5 1.51 3.5 3.5 3.5z"/>
    </g>
</svg>
