<svg width="16" height="17" viewBox="0 0 16 17" fill="none" xmlns="http://www.w3.org/2000/svg">
<path d="M3 9.7207V13.9965C3 14.1291 3.05268 14.2563 3.14645 14.35C3.24022 14.4438 3.36739 14.4965 3.5 14.4965H12.5001C12.6327 14.4965 12.7599 14.4438 12.8536 14.35C12.9474 14.2563 13.0001 14.1291 13.0001 13.9965V9.7208" stroke="black" stroke-width="1.00001" stroke-linecap="round" stroke-linejoin="round"/>
<path d="M3.37716 3.49609H12.6229C12.7316 3.49609 12.8373 3.53149 12.924 3.59692C13.0108 3.66235 13.0739 3.75426 13.1037 3.85874L14.0001 6.99612H2L2.8964 3.85874C2.92625 3.75426 2.98932 3.66235 3.07606 3.59692C3.16281 3.53149 3.26851 3.49609 3.37716 3.49609Z" stroke="black" stroke-width="1.00001" stroke-linecap="round" stroke-linejoin="round"/>
<path d="M6.00004 6.99609V7.9961C6.00004 8.52654 5.78932 9.03525 5.41424 9.41033C5.03917 9.7854 4.53046 9.99612 4.00002 9.99612C3.46958 9.99612 2.96087 9.7854 2.58579 9.41033C2.21072 9.03525 2 8.52654 2 7.9961V6.99609" stroke="black" stroke-width="1.00001" stroke-linecap="round" stroke-linejoin="round"/>
<path d="M10 6.99609V7.9961C10 8.52654 9.78932 9.03525 9.41424 9.41033C9.03917 9.7854 8.53046 9.99612 8.00002 9.99612C7.46958 9.99612 6.96087 9.7854 6.58579 9.41033C6.21072 9.03525 6 8.52654 6 7.9961V6.99609" stroke="black" stroke-width="1.00001" stroke-linecap="round" stroke-linejoin="round"/>
<path d="M14 6.99609V7.9961C14 8.52654 13.7893 9.03525 13.4142 9.41033C13.0392 9.7854 12.5305 9.99612 12 9.99612C11.4696 9.99612 10.9609 9.7854 10.5858 9.41033C10.2107 9.03525 10 8.52654 10 7.9961V6.99609" stroke="black" stroke-width="1.00001" stroke-linecap="round" stroke-linejoin="round"/>
</svg>
