<svg width="24" height="24" viewBox="0 0 24 24" fill="none" xmlns="http://www.w3.org/2000/svg">
<path d="M20.2549 12H18.7549C18.5299 12 18.3049 12.1 18.1549 12.4L16.8049 14.8L14.2549 3.7C14.1049 3.3 13.8049 3 13.5049 3C13.2049 3 12.9049 3.3 12.7549 3.7L9.67988 17L7.42988 9.6C7.35488 9.3 7.12988 9 6.82988 9C6.52988 9 6.30488 9.1 6.15488 9.4L4.87988 12H3.75488C3.30488 12 3.00488 12.4 3.00488 13C3.00488 13.6 3.30488 14 3.75488 14H5.25488C5.47988 14 5.70488 13.8 5.85488 13.6L6.52988 12.2L9.00488 20.4C9.15488 20.8 9.45488 21 9.75488 21C10.0549 21 10.3549 20.7 10.4299 20.3L13.4299 7.4L15.7549 17.3C15.8299 17.7 16.0549 17.9 16.3549 18C16.6549 18.1 16.8799 17.9 17.1049 17.6L19.1299 14H20.2549C20.7049 14 21.0049 13.6 21.0049 13C21.0049 12.4 20.7049 12 20.2549 12Z" fill="#404040"/>
</svg>
