<svg width="15" height="15" viewBox="0 0 15 15" fill="none" xmlns="http://www.w3.org/2000/svg">
<path d="M5.625 3.28125V11.7188" stroke="#004FA3" stroke-width="0.9375" stroke-linecap="round" stroke-linejoin="round"/>
<path d="M1.40625 9.7963C1.40623 9.68831 1.44355 9.58364 1.51189 9.50002C1.58022 9.4164 1.67537 9.35899 1.7812 9.3375C2.20468 9.25098 2.58528 9.02085 2.85862 8.68602C3.13196 8.35119 3.28125 7.93223 3.28125 7.5C3.28125 7.06777 3.13196 6.64881 2.85862 6.31398C2.58528 5.97915 2.20468 5.74902 1.7812 5.6625C1.67537 5.64101 1.58022 5.5836 1.51189 5.49998C1.44355 5.41636 1.40623 5.31169 1.40625 5.2037V3.75C1.40625 3.62568 1.45564 3.50645 1.54354 3.41854C1.63145 3.33064 1.75068 3.28125 1.875 3.28125H13.125C13.2493 3.28125 13.3685 3.33064 13.4565 3.41854C13.5444 3.50645 13.5938 3.62568 13.5938 3.75V5.2037C13.5938 5.31169 13.5565 5.41636 13.4881 5.49998C13.4198 5.5836 13.3246 5.64102 13.2188 5.6625C12.7953 5.74902 12.4147 5.97916 12.1414 6.31398C11.868 6.64881 11.7187 7.06777 11.7187 7.5C11.7187 7.93223 11.868 8.35119 12.1414 8.68602C12.4147 9.02085 12.7953 9.25099 13.2188 9.33751C13.3246 9.35899 13.4198 9.4164 13.4881 9.50002C13.5564 9.58364 13.5938 9.68831 13.5938 9.7963V11.25C13.5938 11.3743 13.5444 11.4935 13.4565 11.5815C13.3685 11.6694 13.2493 11.7188 13.125 11.7188H1.875C1.75068 11.7188 1.63145 11.6694 1.54354 11.5815C1.45564 11.4935 1.40625 11.3743 1.40625 11.25V9.7963Z" stroke="#004FA3" stroke-width="0.9375" stroke-linecap="round" stroke-linejoin="round"/>
</svg>
