<svg width="24" height="24" viewBox="0 0 24 24" fill="none" xmlns="http://www.w3.org/2000/svg">
<path d="M14.75 13.5H10.25C9.8 13.5 9.5 13.8 9.5 14.25C9.5 14.7 9.8 15 10.25 15H14.75C15.2 15 15.5 14.7 15.5 14.25C15.5 13.8 15.2 13.5 14.75 13.5Z" fill="#404040"/>
<path fill-rule="evenodd" clip-rule="evenodd" d="M6.5 19.5H5.75C5.3 19.5 5 19.2 5 18.75V8.25C5 6.975 5.975 6 7.25 6H9.5V3.75C9.5 3.3 9.8 3 10.25 3H14.75C15.2 3 15.5 3.3 15.5 3.75V6H17.75C19.025 6 20 6.975 20 8.25V18.75C20 19.2 19.7 19.5 19.25 19.5H18.5V20.25C18.5 20.7 18.2 21 17.75 21C17.3 21 17 20.7 17 20.25V19.5H8V20.25C8 20.7 7.7 21 7.25 21C6.8 21 6.5 20.7 6.5 20.25V19.5ZM6.49881 12.0001V18.0001H18.4988V12.0001H6.49881ZM10.9988 4.49971H13.9988V5.99971H10.9988V4.49971ZM17.7488 7.50004H7.24881C6.79881 7.50004 6.49881 7.80004 6.49881 8.25004V10.5H18.4988V8.25004C18.4988 7.80004 18.1988 7.50004 17.7488 7.50004Z" fill="#404040"/>
</svg>
