<svg width="16" height="17" viewBox="0 0 16 17" fill="none" xmlns="http://www.w3.org/2000/svg">
<path d="M15 8.49807H11V5.99805H13.6615C13.7614 5.99805 13.8591 6.02799 13.9418 6.08401C14.0246 6.14004 14.0886 6.21957 14.1257 6.31235L15 8.49807Z" stroke="black" stroke-width="1.00001" stroke-linecap="round" stroke-linejoin="round"/>
<path d="M1 9.99805H11.0001" stroke="black" stroke-width="1.00001" stroke-linecap="round" stroke-linejoin="round"/>
<path d="M11.75 14.4981C12.5784 14.4981 13.25 13.8265 13.25 12.9981C13.25 12.1696 12.5784 11.498 11.75 11.498C10.9216 11.498 10.25 12.1696 10.25 12.9981C10.25 13.8265 10.9216 14.4981 11.75 14.4981Z" stroke="black" stroke-width="1.00001" stroke-miterlimit="10"/>
<path d="M4.25001 14.4981C5.07845 14.4981 5.75003 13.8265 5.75003 12.9981C5.75003 12.1696 5.07845 11.498 4.25001 11.498C3.42158 11.498 2.75 12.1696 2.75 12.9981C2.75 13.8265 3.42158 14.4981 4.25001 14.4981Z" stroke="black" stroke-width="1.00001" stroke-miterlimit="10"/>
<path d="M10.25 12.998H5.75" stroke="black" stroke-width="1.00001" stroke-linecap="round" stroke-linejoin="round"/>
<path d="M2.75002 12.9981H1.5C1.36739 12.9981 1.24022 12.9454 1.14645 12.8517C1.05268 12.7579 1 12.6307 1 12.4981V5.49805C1 5.36544 1.05268 5.23826 1.14645 5.14449C1.24022 5.05073 1.36739 4.99805 1.5 4.99805H11.0001V11.699" stroke="black" stroke-width="1.00001" stroke-linecap="round" stroke-linejoin="round"/>
<path d="M11 11.699V8.49805H15V12.4981C15 12.6307 14.9474 12.7579 14.8536 12.8516C14.7598 12.9454 14.6326 12.9981 14.5 12.9981H13.25" stroke="black" stroke-width="1.00001" stroke-linecap="round" stroke-linejoin="round"/>
</svg>
