<svg width="14" height="12" viewBox="0 0 14 12" fill="none" xmlns="http://www.w3.org/2000/svg">
<path d="M11.9651 3.47159C11.9702 3.58774 11.9729 3.7045 11.9729 3.82192C11.9729 7.40061 9.2581 11.5272 4.29359 11.5272C2.76939 11.5272 1.35071 11.0789 0.15625 10.3105C0.367356 10.3355 0.582219 10.3483 0.800083 10.3483C2.06459 10.3483 3.22841 9.91536 4.15213 9.18906C2.97106 9.16717 1.97427 8.3842 1.6308 7.3083C1.7956 7.33985 1.96469 7.35684 2.13859 7.35684C2.38477 7.35684 2.62318 7.32374 2.84968 7.26191C1.615 7.01316 0.684651 5.91859 0.684651 4.60644C0.684651 4.59503 0.684651 4.58368 0.684848 4.5724C1.04879 4.77522 1.46492 4.89708 1.90734 4.91111C1.18315 4.42543 0.706662 3.59654 0.706662 2.657C0.706662 2.16071 0.839755 1.6955 1.07207 1.29549C2.4033 2.93394 4.39201 4.01212 6.63519 4.12505C6.58915 3.92686 6.56527 3.72014 6.56527 3.50791C6.56527 2.01232 7.77378 0.799805 9.26439 0.799805C10.0406 0.799805 10.7421 1.12872 11.2344 1.65502C11.8493 1.53356 12.4269 1.30818 12.9483 0.997862C12.7469 1.63024 12.3189 2.16097 11.7616 2.49613C12.3076 2.43066 12.8278 2.28504 13.3118 2.06966C12.9499 2.61275 12.4923 3.08977 11.9651 3.47159Z" fill="white"/>
</svg>
