<svg width="14" height="14" viewBox="0 0 14 14" fill="none" xmlns="http://www.w3.org/2000/svg">
<path d="M7 4.375V7.4375" stroke="black" stroke-width="0.875" stroke-linecap="round" stroke-linejoin="round"/>
<path d="M8.99341 1.75H5.0066C4.94915 1.75 4.89225 1.76132 4.83917 1.7833C4.78609 1.80529 4.73786 1.83752 4.69724 1.87814L1.87814 4.69724C1.83752 4.73786 1.80529 4.78609 1.7833 4.83917C1.76132 4.89225 1.75 4.94915 1.75 5.0066V8.99341C1.75 9.05086 1.76132 9.10775 1.7833 9.16083C1.80529 9.21391 1.83752 9.26214 1.87814 9.30276L4.69724 12.1219C4.73786 12.1625 4.78609 12.1947 4.83917 12.2167C4.89225 12.2387 4.94915 12.25 5.0066 12.25H8.99341C9.05086 12.25 9.10775 12.2387 9.16083 12.2167C9.21391 12.1947 9.26214 12.1625 9.30276 12.1219L12.1219 9.30276C12.1625 9.26214 12.1947 9.21391 12.2167 9.16083C12.2387 9.10775 12.25 9.05086 12.25 8.99341V5.0066C12.25 4.94915 12.2387 4.89225 12.2167 4.83917C12.1947 4.78609 12.1625 4.73786 12.1219 4.69724L9.30276 1.87814C9.26214 1.83752 9.21391 1.80529 9.16083 1.7833C9.10775 1.76132 9.05086 1.75 8.99341 1.75Z" stroke="black" stroke-width="0.875" stroke-miterlimit="10"/>
<path d="M7 10.0625C7.36244 10.0625 7.65625 9.76869 7.65625 9.40625C7.65625 9.04381 7.36244 8.75 7 8.75C6.63756 8.75 6.34375 9.04381 6.34375 9.40625C6.34375 9.76869 6.63756 10.0625 7 10.0625Z" fill="black"/>
</svg>
