<svg width="16" height="17" viewBox="0 0 16 17" fill="none" xmlns="http://www.w3.org/2000/svg">
<path d="M8 6.99805V9.99807" stroke="black" stroke-width="1.00001" stroke-linecap="round" stroke-linejoin="round"/>
<path d="M7.13456 3.4971L1.63599 12.9967C1.54801 13.1487 1.50161 13.3212 1.50147 13.4968C1.50132 13.6725 1.54743 13.845 1.63517 13.9972C1.7229 14.1493 1.84915 14.2757 2.00123 14.3636C2.15331 14.4514 2.32584 14.4977 2.50148 14.4977H13.4986C13.6742 14.4977 13.8468 14.4514 13.9988 14.3636C14.1509 14.2757 14.2772 14.1493 14.3649 13.9972C14.4526 13.845 14.4988 13.6725 14.4986 13.4968C14.4985 13.3212 14.4521 13.1487 14.3641 12.9967L8.86552 3.4971C8.77768 3.34533 8.65147 3.21934 8.49957 3.13175C8.34766 3.04416 8.17539 2.99805 8.00004 2.99805C7.82469 2.99805 7.65242 3.04416 7.50051 3.13175C7.34861 3.21934 7.2224 3.34533 7.13456 3.4971V3.4971Z" stroke="black" stroke-width="1.00001" stroke-linecap="round" stroke-linejoin="round"/>
<path d="M8.00001 12.9981C8.41422 12.9981 8.75001 12.6623 8.75001 12.2481C8.75001 11.8338 8.41422 11.498 8.00001 11.498C7.58579 11.498 7.25 11.8338 7.25 12.2481C7.25 12.6623 7.58579 12.9981 8.00001 12.9981Z" fill="black"/>
</svg>
