<svg width="29" height="29" viewBox="0 0 29 29" fill="none" xmlns="http://www.w3.org/2000/svg">
<path d="M5.14623 20.0503C3.79508 17.7726 3.3219 15.0799 3.81553 12.478C4.30917 9.87615 5.73566 7.54394 7.82715 5.91938C9.91863 4.29481 12.5312 3.48962 15.1744 3.65502C17.8175 3.82042 20.3094 4.94503 22.182 6.81766C24.0547 8.69029 25.1793 11.1821 25.3447 13.8253C25.5101 16.4684 24.7049 19.081 23.0804 21.1725C21.4558 23.264 19.1236 24.6905 16.5217 25.1842C13.9198 25.6778 11.2272 25.2047 8.94951 23.8535L8.94953 23.8534L5.19352 24.9266C5.03812 24.971 4.87367 24.973 4.71722 24.9324C4.56077 24.8919 4.41801 24.8103 4.30373 24.696C4.18945 24.5817 4.10781 24.4389 4.06727 24.2825C4.02673 24.126 4.02876 23.9616 4.07316 23.8062L5.14631 20.0502L5.14623 20.0503Z" stroke="#F8FFED" stroke-width="1.31818" stroke-linecap="round" stroke-linejoin="round"/>
<path d="M17.2316 20.8437C16.0394 20.8454 14.8585 20.6119 13.7566 20.1564C12.6548 19.7009 11.6537 19.0325 10.8106 18.1894C9.96753 17.3463 9.29911 16.3452 8.84363 15.2434C8.38815 14.1415 8.15456 12.9606 8.15626 11.7684C8.15896 10.9292 8.49441 10.1253 9.08904 9.53306C9.68366 8.94084 10.4889 8.60866 11.3281 8.60938C11.4658 8.60938 11.601 8.64577 11.72 8.71486C11.8391 8.78395 11.9378 8.88328 12.0061 9.0028L13.3304 11.3205C13.4103 11.4602 13.4515 11.6187 13.4498 11.7797C13.4481 11.9407 13.4035 12.0983 13.3207 12.2363L12.2571 14.009C12.8043 15.2234 13.7766 16.1957 14.991 16.7429L16.7637 15.6793C16.9017 15.5965 17.0593 15.5519 17.2203 15.5502C17.3813 15.5485 17.5398 15.5897 17.6795 15.6696L19.9972 16.9939C20.1167 17.0622 20.2161 17.1609 20.2851 17.28C20.3542 17.399 20.3906 17.5342 20.3906 17.6719C20.3882 18.5101 20.055 19.3136 19.4635 19.9075C18.872 20.5015 18.0699 20.8379 17.2316 20.8437Z" stroke="#F8FFED" stroke-width="1.31818" stroke-linecap="round" stroke-linejoin="round"/>
</svg>
