<svg width="23" height="22" viewBox="0 0 23 22" fill="none" xmlns="http://www.w3.org/2000/svg">
<path d="M4.53685 15.2107C3.51184 13.4828 3.15287 11.4401 3.52735 9.46627C3.90183 7.49242 4.984 5.72316 6.57065 4.49073C8.15729 3.2583 10.1393 2.64747 12.1444 2.77294C14.1496 2.89842 16.0399 3.75157 17.4605 5.17219C18.8812 6.59281 19.7343 8.48317 19.8598 10.4883C19.9853 12.4934 19.3745 14.4754 18.1421 16.0621C16.9096 17.6487 15.1404 18.7309 13.1665 19.1054C11.1927 19.4799 9.15002 19.1209 7.42209 18.0959L7.42211 18.0959L4.57272 18.91C4.45483 18.9436 4.33008 18.9452 4.21139 18.9144C4.09271 18.8837 3.98441 18.8218 3.89771 18.7351C3.81101 18.6484 3.74908 18.5401 3.71833 18.4214C3.68757 18.3027 3.68912 18.1779 3.7228 18.06L4.53691 15.2107L4.53685 15.2107Z" stroke="#6EAB15" stroke-linecap="round" stroke-linejoin="round"/>
<path d="M13.7051 15.8125C12.8006 15.8138 11.9048 15.6366 11.0689 15.291C10.233 14.9455 9.47352 14.4384 8.83395 13.7989C8.19439 13.1593 7.68731 12.3998 7.34177 11.5639C6.99624 10.7281 6.81903 9.83221 6.82032 8.92773C6.82237 8.29108 7.07685 7.68124 7.52794 7.23197C7.97904 6.78271 8.58991 6.53071 9.22656 6.53125C9.33099 6.53125 9.43356 6.55886 9.52387 6.61127C9.61419 6.66368 9.68905 6.73904 9.74086 6.82971L10.7456 8.58793C10.8061 8.69396 10.8374 8.81422 10.8361 8.93634C10.8348 9.05845 10.801 9.17802 10.7382 9.28274L9.93129 10.6275C10.3464 11.5488 11.0841 12.2864 12.0053 12.7015L13.3501 11.8947C13.4548 11.8318 13.5744 11.798 13.6965 11.7967C13.8186 11.7954 13.9388 11.8267 14.0449 11.8873L15.8031 12.892C15.8938 12.9438 15.9691 13.0186 16.0215 13.1089C16.074 13.1993 16.1016 13.3018 16.1016 13.4063C16.0997 14.0422 15.847 14.6517 15.3982 15.1023C14.9495 15.5528 14.341 15.8081 13.7051 15.8125Z" stroke="#6EAB15" stroke-linecap="round" stroke-linejoin="round"/>
</svg>
