<svg width="14" height="14" viewBox="0 0 14 14" fill="none" xmlns="http://www.w3.org/2000/svg">
<path d="M10.1167 2.02759L7.82188 4.32238L8.13124 5.86918L9.67804 6.17853L11.9728 3.88375L11.9731 3.88365C12.2571 4.55414 12.325 5.2965 12.1674 6.0074C12.0098 6.7183 11.6344 7.36237 11.0936 7.84995C10.5528 8.33754 9.87338 8.64438 9.15001 8.72777C8.42663 8.81115 7.69525 8.66693 7.05768 8.31518L7.05774 8.31506L3.99054 11.866C3.74435 12.1119 3.41058 12.25 3.06261 12.2499C2.71465 12.2498 2.38096 12.1116 2.13491 11.8655C1.88886 11.6195 1.75059 11.2858 1.75049 10.9378C1.75039 10.5898 1.88847 10.2561 2.13438 10.0099L5.68532 6.94271L5.68524 6.94275C5.33349 6.30517 5.18927 5.57379 5.27265 4.85042C5.35603 4.12704 5.66288 3.44765 6.15046 2.90683C6.63805 2.36601 7.28212 1.99066 7.99302 1.83303C8.70392 1.6754 9.44628 1.74333 10.1168 2.02737L10.1167 2.02759Z" stroke="black" stroke-width="0.875" stroke-linecap="round" stroke-linejoin="round"/>
</svg>
