<svg width="29" height="28" viewBox="0 0 29 28" fill="none" xmlns="http://www.w3.org/2000/svg">
<path d="M20.6383 4.0542L15.9569 8.64378L16.588 11.7374L19.7435 12.3561L24.4249 7.76651L24.4253 7.76632C25.0048 9.10729 25.1433 10.592 24.8218 12.0138C24.5002 13.4356 23.7345 14.7238 22.6312 15.6989C21.5279 16.6741 20.142 17.2878 18.6663 17.4546C17.1906 17.6213 15.6986 17.3329 14.398 16.6294L14.3981 16.6291L8.14099 23.7311C7.63876 24.2229 6.95788 24.4991 6.24803 24.4989C5.53817 24.4987 4.85745 24.2221 4.35551 23.73C3.85357 23.2379 3.57149 22.5706 3.57129 21.8746C3.57109 21.1787 3.85278 20.5112 4.35443 20.0188L11.5983 13.8844L11.5982 13.8845C10.8806 12.6094 10.5864 11.1466 10.7565 9.69985C10.9266 8.2531 11.5526 6.89433 12.5472 5.81268C13.5419 4.73104 14.8558 3.98034 16.3061 3.66508C17.7563 3.34981 19.2707 3.48568 20.6385 4.05376L20.6383 4.0542Z" stroke="#00468A" stroke-width="1.55556" stroke-linecap="round" stroke-linejoin="round"/>
</svg>
